<svg xmlns="http://www.w3.org/2000/svg" xmlns:xlink="http://www.w3.org/1999/xlink" version="1.1" id="Layer_1" x="0px" y="0px" enable-background="new 0 0 2100 2100" xml:space="preserve" viewBox="272.23 550.87 1555.54 998.27">
	<g>
		<g>
			<path d="M300.69,1495.493c0-5.338-2.714-8.323-5.971-8.413l-3.709-0.091c-0.452,0-0.542-0.362-0.542-0.633v-2.353    c0-0.362,0.09-0.543,0.542-0.543c0.453,0,1.177,0.091,2.533,0.091c1.356,0.09,3.347,0.182,6.423,0.182    c3.075,0,4.975-0.182,6.061-0.182c1.176,0,1.899,0.363,2.623,1.178c0.452,0.542,18.001,23.336,18.996,24.603    c0.995,1.268,16.282,19.99,18.453,22.886h0.36v-10.765c0-8.05-0.09-12.483-0.271-17.006c-0.09-3.528-0.543-12.393-1.086-13.93    c-0.724-2.263-2.441-3.528-4.976-3.528h-2.894c-0.362,0-0.543-0.18-0.543-0.633v-2.353c0-0.362,0.181-0.543,0.543-0.543    c1.267,0,4.161,0.272,9.951,0.272c5.427,0,7.597-0.272,8.773-0.272c0.633,0,0.724,0.272,0.724,0.634v2.262    c0,0.361-0.181,0.633-0.542,0.633h-2.443c-2.441,0-3.347,1.537-3.528,4.976c-0.36,6.061-0.36,15.017-0.36,20.896v33.831    c0,1.266-0.091,2.171-0.453,2.171c-1.085,0-1.899-1.086-2.17-1.448c-0.092-0.181-5.429-6.875-11.036-13.931    c-6.332-7.869-12.936-16.19-13.479-16.735c-0.995-0.903-17.639-21.797-18.182-22.521h-0.543v20.08    c0,8.411,0.724,23.156,0.905,24.965c0.361,3.528,0.904,5.246,3.347,5.246h2.713c0.634,0,0.724,0.273,0.724,0.815v1.99    c0,0.543-0.09,0.723-0.724,0.723c-0.904,0-6.331-0.271-8.774-0.271c-1.898,0-8.141,0.271-9.045,0.271    c-0.361,0-0.452-0.18-0.452-0.633v-2.352c0-0.271,0.091-0.544,0.542-0.544h3.076c2.623,0,3.618-1.084,4.07-5.518    c0.182-1.718,0.362-12.029,0.362-28.131V1495.493z"></path>
			<path d="M397.746,1522.629c-0.903,2.261-5.879,16.012-6.331,17.91c-0.091,0.633-0.271,1.537-0.271,1.99    c0,1.267,1.085,1.989,3.075,1.989h4.251c0.634,0,0.905,0.184,0.905,0.634v2.081c0,0.634-0.271,0.813-0.724,0.813    c-1.267,0-4.976-0.271-10.313-0.271c-6.604,0-8.593,0.271-9.859,0.271c-0.453,0-0.633-0.18-0.633-0.723v-2.172    c0-0.45,0.361-0.634,0.724-0.634h3.165c2.715,0,3.98-1.266,5.247-4.16c0.633-1.447,7.236-18.182,9.86-25.599    c0.633-1.81,7.96-21.258,8.773-23.7c0.271-0.904,0.724-2.08,0.09-3.075c-0.271-0.361-0.632-0.814-0.632-1.175    c0-0.272,0.181-0.633,0.813-0.815c2.532-0.542,6.513-3.256,7.509-4.522c0.451-0.453,0.723-0.813,1.175-0.813    c0.542,0,0.724,0.543,0.995,1.538c1.719,5.698,8.774,25.961,10.492,31.749c2.081,7.056,7.961,23.881,9.228,26.504    c1.538,2.985,3.89,4.069,6.15,4.069h2.986c0.542,0,0.722,0.273,0.722,0.634v2.262c0,0.453-0.271,0.633-0.903,0.633    c-1.628,0-3.527-0.271-10.854-0.271c-7.508,0-10.675,0.271-12.755,0.271c-0.452,0-0.723-0.271-0.723-0.813v-2.081    c0-0.543,0.271-0.634,0.813-0.634h2.263c2.532,0,3.347-0.903,2.713-3.437c-0.724-3.256-4.432-14.835-5.698-18.453H397.746z     M418.914,1519.374c-0.814-2.716-8.143-25.328-8.594-26.686c-0.271-0.634-0.452-1.269-0.724-1.269    c-0.362,0-0.724,0.635-0.995,1.358c-0.453,1.178-9.046,24.333-9.679,26.596H418.914z"></path>
			<path d="M482.773,1486.989h-2.262c-2.895,0-10.764,0-14.292,1.086c-4.07,1.267-6.784,7.598-8.051,10.492    c-0.181,0.453-0.452,0.544-0.904,0.453l-1.629-0.453c-0.271-0.09-0.542-0.181-0.361-0.722c0.904-3.258,4.07-14.927,4.252-15.922    c0.181-1.176,0.542-1.447,0.904-1.447c0.452,0,0.724,0.09,1.085,0.361l1.177,0.815c1.628,1.176,2.532,1.446,5.155,1.536    c4.795,0.182,8.594,0.544,17.096,0.544h4.342c9.86,0,13.751-0.362,18.183-0.544c1.99-0.09,3.166-0.36,4.704-1.266l1.718-1.086    c0.453-0.271,0.724-0.361,1.086-0.361c0.453,0,0.633,0.271,0.814,1.447c0.181,1.085,1.899,12.304,2.623,16.282    c0.09,0.452-0.09,0.635-0.543,0.725l-1.447,0.36c-0.361,0.091-0.452,0-0.723-0.633c-0.725-1.718-3.438-8.683-6.423-10.132    c-2.715-1.356-11.217-1.537-15.649-1.537h-2.532v25.781c0,1.265,0,26.593,0.09,28.131c0.182,2.262,0.904,3.617,3.075,3.617h5.699    c0.814,0,0.904,0.273,0.904,0.905v1.9c0,0.452-0.09,0.723-0.904,0.723c-0.904,0-3.8-0.271-12.664-0.271    c-8.685,0-12.482,0.271-13.749,0.271c-0.724,0-0.814-0.36-0.814-0.905v-1.718c0-0.632,0.091-0.905,0.633-0.905h6.151    c1.81,0,2.896-1.084,2.985-2.169c0.271-2.623,0.271-30.395,0.271-32.111V1486.989z"></path>
			<path d="M560.019,1547.233c-6.15-2.441-9.316-6.422-10.764-12.121c-1.085-4.07-1.447-10.131-1.447-21.979v-21.53    c0-3.166-0.633-4.613-3.438-4.613h-4.251c-0.543,0-0.633-0.18-0.633-0.813v-1.99c0-0.545,0.09-0.726,0.813-0.726    c0.904,0,5.337,0.272,12.393,0.272s11.397-0.272,12.393-0.272c0.724,0,0.813,0.181,0.813,0.543v2.353    c0,0.453-0.09,0.633-0.724,0.633h-4.521c-2.623,0-4.162,1.718-4.343,3.71c-0.091,0.813-0.181,7.146-0.181,11.759v5.97    c0,4.795,0.361,16.282,0.452,19.177c0.09,4.16,0.813,8.413,2.895,11.487c3.347,4.885,9.136,6.513,14.383,6.513    c5.155,0,10.402-1.718,13.568-4.975c3.527-3.799,4.703-9.226,4.703-15.92v-19.357c0-6.875-0.181-12.122-0.452-14.383    c-0.271-2.353-1.718-3.98-4.07-3.98h-3.98c-0.542,0-0.633-0.271-0.633-0.723v-2.172c0-0.453,0.091-0.634,0.633-0.634    c0.905,0,5.066,0.272,11.126,0.272c6.242,0,9.137-0.272,9.951-0.272c0.813,0,0.904,0.363,0.904,0.634v1.989    c0,0.543-0.091,0.905-0.542,0.905h-3.709c-3.348,0-3.618,2.532-3.891,3.618c-0.181,0.905-0.181,13.75-0.181,15.017    c0,1.266-0.181,17.095-0.452,20.623c-0.542,7.418-2.533,13.116-7.599,17.458c-3.618,3.347-9.136,5.428-17.005,5.428    C567.527,1549.133,563.004,1548.499,560.019,1547.233z"></path>
			<path d="M637.265,1506.619c0-6.695,0-12.483-0.091-15.106c-0.09-2.986-1.176-4.523-3.438-4.523h-3.617    c-0.452,0-0.543-0.271-0.543-0.633v-2.262c0-0.453,0.091-0.634,0.543-0.634c0.813,0,3.617,0.272,11.216,0.272    c5.065,0,13.479-0.272,15.106-0.272c7.508,0,13.478,2.263,16.916,5.519c2.984,2.895,4.703,6.966,4.703,10.312    c0,11.309-5.156,15.559-16.734,18.093v0.18c2.171,0.815,3.438,2.442,4.16,3.438c1.086,1.176,7.509,10.403,8.232,11.579    c0.452,0.903,6.241,9.136,7.96,10.401c1.898,1.357,3.98,1.537,6.512,1.537c0.634,0,0.725,0.363,0.725,0.726v1.989    c0,0.543-0.091,0.813-0.725,0.813c-0.723,0-3.074-0.271-7.055-0.271c-2.623,0-5.97,0.181-7.327,0.271    c-0.995-0.905-2.985-3.979-3.799-5.155c-0.724-1.086-5.608-9.68-6.061-10.402c-0.362-0.635-4.704-7.147-5.789-8.413    c-2.353-2.803-4.522-5.246-9.77-5.246c-0.814,0-1.718,0-2.985,0.271v5.066c0,5.338,0.091,15.469,0.181,16.825    c0.182,1.899,0.905,3.526,2.262,3.526h5.698c0.634,0,0.724,0.273,0.724,0.726v1.989c0,0.634-0.09,0.813-0.994,0.813    c-0.996,0-3.257-0.271-11.85-0.271c-8.232,0-10.313,0.271-11.307,0.271c-0.725,0-0.725-0.271-0.725-0.723v-2.08    c0-0.452,0-0.726,0.452-0.726h3.709c1.99,0,3.528-0.632,3.528-3.074c0.181-8.955,0.181-17.459,0.181-26.051V1506.619z     M645.405,1515.573c1.357,0.271,2.353,0.362,4.07,0.362c16.464,0,19.63-11.307,19.63-15.106c0-4.161-1.899-8.141-4.522-10.312    c-3.528-2.805-7.508-4.161-15.017-4.161c-1.085,0-2.261,0.181-3.075,0.724c-0.634,0.452-1.086,1.446-1.086,2.896V1515.573z"></path>
			<path d="M722.471,1543.253c-6.422-3.89-13.297-13.658-13.297-26.865c0-5.518,1.447-14.111,8.412-22.522    c7.961-9.679,16.916-11.489,24.514-11.489c5.698,0,13.116,1.176,20.262,7.146c6.604,5.7,12.394,14.565,12.394,27.047    c0,6.604-2.081,13.479-6.785,19.81c-5.518,7.327-13.567,12.755-26.051,12.755C737.486,1549.133,729.617,1547.687,722.471,1543.253    z M765.89,1517.293c0-19.81-14.11-31.479-24.151-31.479c-1.356,0-7.508-1.084-14.292,5.336    c-6.061,5.791-9.046,14.927-9.046,22.344c0,23.79,16.553,32.203,24.243,32.203C762.543,1545.696,765.89,1525.342,765.89,1517.293z    "></path>
			<path d="M817.898,1523.805c0,4.253,0.091,16.554,0.182,17.819c0.182,1.991,1.085,2.895,2.985,2.895h5.789    c0.633,0,0.724,0.273,0.724,0.634v2.172c0,0.452-0.091,0.723-0.814,0.723c-1.267,0-4.071-0.271-12.573-0.271    c-7.96,0-11.487,0.271-12.483,0.271c-0.633,0-0.724-0.271-0.724-0.633v-2.262c0-0.45,0.091-0.634,0.543-0.634h3.89    c3.076,0,3.709-0.451,3.979-2.895c0.091-0.902,0.362-15.016,0.362-25.508v-10.402c0-5.97-0.09-15.83-0.181-16.734    c-0.182-1.81-1.085-1.99-3.528-1.99h-5.155c-0.453,0-0.543-0.18-0.543-0.723v-2.172c0-0.453,0.09-0.634,0.543-0.634    c0.994,0,4.251,0.272,12.845,0.272c1.629,0,6.965-0.272,9.95-0.272c10.221,0,15.016,0.996,20.172,4.523    c4.251,2.895,6.875,7.961,6.875,13.116c0,11.397-8.594,18.453-22.978,18.453c-3.346,0-6.965-0.09-9.859-0.453V1523.805z     M817.898,1515.845c1.811,0.543,4.794,0.813,8.322,0.813c5.519,0,10.402-2.983,12.754-6.148c1.99-2.624,2.353-5.973,2.353-9.139    c0-11.85-11.036-15.015-16.372-15.015c-1.539,0-5.246,0-7.057,0.633V1515.845z"></path>
			<path d="M883.479,1522.629c-0.905,2.261-5.88,16.012-6.332,17.91c-0.092,0.633-0.271,1.537-0.271,1.99    c0,1.267,1.085,1.989,3.075,1.989h4.251c0.634,0,0.905,0.184,0.905,0.634v2.081c0,0.634-0.271,0.813-0.724,0.813    c-1.267,0-4.976-0.271-10.312-0.271c-6.604,0-8.594,0.271-9.86,0.271c-0.453,0-0.633-0.18-0.633-0.723v-2.172    c0-0.45,0.361-0.634,0.723-0.634h3.166c2.714,0,3.98-1.266,5.246-4.16c0.634-1.447,7.237-18.182,9.86-25.599    c0.634-1.81,7.96-21.258,8.774-23.7c0.272-0.904,0.724-2.08,0.091-3.075c-0.271-0.361-0.633-0.814-0.633-1.175    c0-0.272,0.18-0.633,0.814-0.815c2.531-0.542,6.512-3.256,7.507-4.522c0.452-0.453,0.724-0.813,1.176-0.813    c0.543,0,0.724,0.543,0.995,1.538c1.719,5.698,8.773,25.961,10.493,31.749c2.08,7.056,7.961,23.881,9.227,26.504    c1.537,2.985,3.89,4.069,6.15,4.069h2.985c0.543,0,0.724,0.273,0.724,0.634v2.262c0,0.453-0.271,0.633-0.904,0.633    c-1.629,0-3.527-0.271-10.854-0.271c-7.508,0-10.674,0.271-12.754,0.271c-0.453,0-0.724-0.271-0.724-0.813v-2.081    c0-0.543,0.271-0.634,0.813-0.634h2.262c2.532,0,3.346-0.903,2.714-3.437c-0.725-3.256-4.433-14.835-5.7-18.453H883.479z     M904.646,1519.374c-0.814-2.716-8.142-25.328-8.594-26.686c-0.271-0.634-0.453-1.269-0.725-1.269    c-0.361,0-0.724,0.635-0.994,1.358c-0.452,1.178-9.045,24.333-9.68,26.596H904.646z"></path>
			<path d="M968.505,1486.989h-2.262c-2.895,0-10.765,0-14.292,1.086c-4.07,1.267-6.784,7.598-8.05,10.492    c-0.182,0.453-0.453,0.544-0.905,0.453l-1.628-0.453c-0.272-0.09-0.543-0.181-0.362-0.722c0.905-3.258,4.07-14.927,4.252-15.922    c0.181-1.176,0.542-1.447,0.905-1.447c0.451,0,0.723,0.09,1.084,0.361l1.176,0.815c1.629,1.176,2.533,1.446,5.156,1.536    c4.795,0.182,8.594,0.544,17.097,0.544h4.342c9.859,0,13.75-0.362,18.181-0.544c1.991-0.09,3.167-0.36,4.705-1.266l1.719-1.086    c0.452-0.271,0.724-0.361,1.085-0.361c0.452,0,0.633,0.271,0.814,1.447c0.181,1.085,1.899,12.304,2.623,16.282    c0.091,0.452-0.09,0.635-0.542,0.725l-1.448,0.36c-0.362,0.091-0.452,0-0.723-0.633c-0.725-1.718-3.438-8.683-6.423-10.132    c-2.714-1.356-11.217-1.537-15.649-1.537h-2.532v25.781c0,1.265,0,26.593,0.091,28.131c0.18,2.262,0.903,3.617,3.074,3.617h5.699    c0.814,0,0.904,0.273,0.904,0.905v1.9c0,0.452-0.09,0.723-0.904,0.723c-0.905,0-3.799-0.271-12.664-0.271    c-8.684,0-12.482,0.271-13.749,0.271c-0.724,0-0.814-0.36-0.814-0.905v-1.718c0-0.632,0.091-0.905,0.633-0.905h6.152    c1.809,0,2.895-1.084,2.984-2.169c0.271-2.623,0.271-30.395,0.271-32.111V1486.989z"></path>
			<path d="M1036.615,1512.136c0-5.607-0.182-17.818-0.182-19.266c0-4.615-0.633-5.881-3.979-5.881h-4.252    c-0.452,0-0.542-0.18-0.542-0.723v-2.172c0-0.453,0.271-0.634,0.724-0.634c1.809,0,4.703,0.272,12.664,0.272    c7.055,0,10.312-0.272,12.029-0.272c0.634,0,0.905,0.091,0.905,0.454v2.352c0,0.543-0.18,0.723-0.724,0.723h-4.614    c-3.074,0-3.526,1.537-3.526,5.155c0,1.268-0.182,13.208-0.182,18.272v1.538c0,0.452,0.271,0.723,1.085,0.723h33.47    c1.356,0,1.809-0.18,1.809-1.355v-0.905c0-5.154-0.271-17.729-0.271-18.814c0-2.896-0.36-4.613-2.983-4.613h-4.705    c-0.453,0-0.634-0.18-0.634-0.633v-2.353c0-0.362,0.091-0.543,0.544-0.543c1.898,0,5.788,0.272,11.938,0.272    c6.152,0,9.861-0.272,11.579-0.272c0.635,0,0.725,0.181,0.725,0.726v2.17c0,0.543-0.182,0.633-0.725,0.633h-4.07    c-2.623,0-2.894,1.537-2.894,4.794c0,1.268-0.182,16.554-0.182,19.901v3.075c0,2.894,0.182,20.081,0.271,25.237    c0,3.256,0.905,4.521,3.618,4.521h3.98c0.632,0,0.813,0.184,0.813,0.634v2.172c0,0.543-0.181,0.723-0.722,0.723    c-1.719,0-4.796-0.271-11.399-0.271c-7.869,0-10.764,0.271-13.478,0.271c-0.361,0-0.542-0.271-0.542-0.633v-2.262    c0-0.45,0.181-0.634,0.723-0.634h5.7c2.171,0,2.441-1.718,2.441-4.16c0.092-4.251,0.271-18.814,0.271-22.07v-1.267    c0-0.995-0.452-1.086-1.991-1.086h-33.105c-0.995,0-1.267,0.271-1.267,0.905v1.899c0,2.441,0.091,16.372,0.182,22.704    c0.09,2.171,0.994,3.074,2.895,3.074h4.432c0.542,0,0.723,0.184,0.723,0.634v2.262c0,0.453-0.181,0.633-0.723,0.633    c-1.719,0-4.885-0.271-11.396-0.271c-7.781,0-10.494,0.271-12.574,0.271c-0.452,0-0.633-0.18-0.633-0.633v-2.352    c0-0.36,0.271-0.544,0.633-0.544h5.337c2.262,0,2.532-2.169,2.532-4.342c0.091-4.25,0.272-21.798,0.272-24.15V1512.136z"></path>
			<path d="M1133.67,1509.875c0-2.172-0.272-18.455-0.362-19.81c-0.181-2.171-1.084-3.076-4.522-3.076h-5.246    c-0.453,0-0.724-0.18-0.724-0.542v-2.443c0-0.362,0.271-0.543,0.632-0.543c1.086,0,5.699,0.272,14.112,0.272    c8.051,0,10.945-0.272,12.21-0.272c0.455,0,0.635,0.272,0.635,0.634v2.262c0,0.453-0.27,0.633-0.725,0.633h-4.251    c-1.808,0-3.166,0.724-3.166,2.532c0,0.905-0.271,20.896-0.271,21.981v6.965c0,0.906,0.271,21.801,0.271,22.796    c0,2.804,1.358,3.255,4.252,3.255h3.71c0.45,0,0.722,0.184,0.722,0.634v2.353c0,0.362-0.271,0.542-0.812,0.542    c-1.087,0-4.706-0.271-12.575-0.271c-8.593,0-12.483,0.271-13.479,0.271c-0.452,0-0.724-0.18-0.724-0.542v-2.442    c0-0.36,0.271-0.544,0.724-0.544h5.065c1.811,0,3.71-0.271,4.071-2.623c0.18-1.356,0.452-20.895,0.452-25.689V1509.875z"></path>
			<path d="M1187.035,1540.812c-6.512-6.151-9.68-16.645-9.68-25.328c0-8.412,2.716-17.097,9.229-23.971    c4.612-4.886,12.751-9.137,22.612-9.137c8.231,0,15.015,3.076,18.272,4.977c1.176,0.723,1.628,0.632,1.81,0l0.723-2.623    c0.182-0.543,0.362-0.543,1.177-0.543c0.813,0,0.995,0.18,0.995,1.445c0,1.721,1.81,15.017,2.263,17.55    c0.089,0.452,0,0.813-0.363,0.905l-1.357,0.36c-0.452,0.09-0.634,0-0.905-0.724c-1.266-2.984-3.255-7.328-7.057-11.217    c-3.797-3.89-8.591-6.965-15.737-6.965c-16.19,0-22.704,14.382-22.614,27.591c0,5.246,1.628,15.467,8.684,23.245    c6.152,6.875,11.307,7.599,17.367,7.599c10.222,0,18.182-5.607,22.344-11.487c0.271-0.454,0.451-0.544,0.724-0.271l1.176,0.904    c0.272,0.182,0.453,0.361,0.18,0.815c-5.426,7.868-14.201,15.195-26.955,15.195    C1199.249,1549.133,1192.463,1545.786,1187.035,1540.812z"></path>
			<path d="M1312.041,1506.257c0-2.352-0.271-15.197-0.453-16.735c-0.271-2.169-1.447-2.532-3.889-2.532h-4.976    c-0.452,0-0.724-0.09-0.724-0.633v-2.441c0-0.363,0.271-0.454,0.634-0.454c1.175,0,5.156,0.272,13.297,0.272    c2.351,0,11.397-0.272,13.478-0.272c11.67,0,21.438,1.358,29.398,8.142c5.881,5.065,10.041,12.574,10.041,23.066    c0,10.402-2.985,17.276-8.956,23.789c-8.684,9.589-21.165,9.589-28.132,9.589c-5.697,0-12.573-0.271-16.644-0.271    c-7.869,0-11.487,0.271-12.754,0.271c-0.452,0-0.634-0.18-0.634-0.633v-2.352c0-0.36,0.271-0.544,0.724-0.544h6.062    c1.718,0,2.712-0.723,2.895-2.169c0.27-1.9,0.633-22.254,0.633-29.309V1506.257z M1320.363,1515.03    c0,1.176,0.091,16.555,0.181,22.163c0,1.808,0.362,3.256,1.538,5.065c1.447,1.899,5.064,2.894,9.588,2.894    c9.227,0,16.734-3.98,21.258-9.77c3.799-4.702,6.604-12.119,6.604-20.353c0-7.055-3.078-15.196-7.418-19.99    c-4.703-5.156-12.665-8.684-22.705-8.684c-1.99,0-5.698,0-7.236,0.904c-1.266,0.814-1.628,2.261-1.718,4.252    c-0.091,3.799-0.091,15.648-0.091,17.095V1515.03z"></path>
			<path d="M1409.639,1543.253c-6.422-3.89-13.298-13.658-13.298-26.865c0-5.518,1.448-14.111,8.412-22.522    c7.961-9.679,16.916-11.489,24.515-11.489c5.699,0,13.117,1.176,20.263,7.146c6.603,5.7,12.392,14.565,12.392,27.047    c0,6.604-2.08,13.479-6.783,19.81c-5.519,7.327-13.568,12.755-26.053,12.755    C1424.655,1549.133,1416.784,1547.687,1409.639,1543.253z M1453.059,1517.293c0-19.81-14.111-31.479-24.152-31.479    c-1.356,0-7.509-1.084-14.292,5.336c-6.062,5.791-9.047,14.927-9.047,22.344c0,23.79,16.556,32.203,24.243,32.203    C1449.711,1545.696,1453.059,1525.342,1453.059,1517.293z"></path>
			<path d="M1499.64,1540.812c-6.514-6.151-9.68-16.645-9.68-25.328c0-8.412,2.713-17.097,9.225-23.971    c4.615-4.886,12.757-9.137,22.615-9.137c8.231,0,15.017,3.076,18.272,4.977c1.178,0.723,1.628,0.632,1.81,0l0.724-2.623    c0.181-0.543,0.362-0.543,1.176-0.543s0.994,0.18,0.994,1.445c0,1.721,1.81,15.017,2.263,17.55c0.09,0.452,0,0.813-0.362,0.905    l-1.357,0.36c-0.45,0.09-0.633,0-0.903-0.724c-1.268-2.984-3.257-7.328-7.056-11.217c-3.801-3.89-8.594-6.965-15.74-6.965    c-16.191,0-22.705,14.382-22.614,27.591c0,5.246,1.63,15.467,8.684,23.245c6.151,6.875,11.308,7.599,17.369,7.599    c10.221,0,18.181-5.607,22.341-11.487c0.272-0.454,0.453-0.544,0.725-0.271l1.176,0.904c0.271,0.182,0.452,0.361,0.182,0.815    c-5.428,7.868-14.202,15.195-26.956,15.195C1511.849,1549.133,1505.065,1545.786,1499.64,1540.812z"></path>
			<path d="M1598.413,1486.989h-2.263c-2.893,0-10.764,0-14.29,1.086c-4.07,1.267-6.784,7.598-8.051,10.492    c-0.183,0.453-0.453,0.544-0.905,0.453l-1.627-0.453c-0.273-0.09-0.545-0.181-0.363-0.722c0.905-3.258,4.071-14.927,4.252-15.922    c0.182-1.176,0.542-1.447,0.904-1.447c0.453,0,0.725,0.09,1.085,0.361l1.177,0.815c1.629,1.176,2.533,1.446,5.156,1.536    c4.793,0.182,8.594,0.544,17.096,0.544h4.342c9.86,0,13.75-0.362,18.182-0.544c1.989-0.09,3.167-0.36,4.704-1.266l1.718-1.086    c0.453-0.271,0.725-0.361,1.088-0.361c0.451,0,0.632,0.271,0.813,1.447c0.182,1.085,1.9,12.304,2.623,16.282    c0.09,0.452-0.09,0.635-0.542,0.725l-1.448,0.36c-0.361,0.091-0.451,0-0.723-0.633c-0.723-1.718-3.438-8.683-6.423-10.132    c-2.713-1.356-11.217-1.537-15.647-1.537h-2.535v25.781c0,1.265,0,26.593,0.092,28.131c0.181,2.262,0.903,3.617,3.075,3.617h5.699    c0.814,0,0.904,0.273,0.904,0.905v1.9c0,0.452-0.09,0.723-0.904,0.723c-0.905,0-3.799-0.271-12.664-0.271    c-8.684,0-12.483,0.271-13.75,0.271c-0.723,0-0.814-0.36-0.814-0.905v-1.718c0-0.632,0.092-0.905,0.635-0.905h6.149    c1.81,0,2.895-1.084,2.986-2.169c0.271-2.623,0.271-30.395,0.271-32.111V1486.989z"></path>
			<path d="M1670.232,1543.253c-6.423-3.89-13.299-13.658-13.299-26.865c0-5.518,1.45-14.111,8.414-22.522    c7.961-9.679,16.914-11.489,24.513-11.489c5.7,0,13.117,1.176,20.263,7.146c6.604,5.7,12.394,14.565,12.394,27.047    c0,6.604-2.081,13.479-6.785,19.81c-5.519,7.327-13.567,12.755-26.052,12.755    C1685.248,1549.133,1677.379,1547.687,1670.232,1543.253z M1713.651,1517.293c0-19.81-14.111-31.479-24.151-31.479    c-1.357,0-7.509-1.084-14.292,5.336c-6.061,5.791-9.046,14.927-9.046,22.344c0,23.79,16.555,32.203,24.241,32.203    C1710.306,1545.696,1713.651,1525.342,1713.651,1517.293z"></path>
			<path d="M1757.88,1506.619c0-6.695,0-12.483-0.09-15.106c-0.091-2.986-1.175-4.523-3.436-4.523h-3.62    c-0.453,0-0.543-0.271-0.543-0.633v-2.262c0-0.453,0.09-0.634,0.543-0.634c0.813,0,3.62,0.272,11.217,0.272    c5.064,0,13.479-0.272,15.105-0.272c7.51,0,13.479,2.263,16.917,5.519c2.984,2.895,4.704,6.966,4.704,10.312    c0,11.309-5.158,15.559-16.734,18.093v0.18c2.17,0.815,3.436,2.442,4.16,3.438c1.086,1.176,7.508,10.403,8.231,11.579    c0.453,0.903,6.242,9.136,7.959,10.401c1.901,1.357,3.979,1.537,6.515,1.537c0.632,0,0.723,0.363,0.723,0.726v1.989    c0,0.543-0.091,0.813-0.723,0.813c-0.725,0-3.076-0.271-7.056-0.271c-2.625,0-5.971,0.181-7.328,0.271    c-0.995-0.905-2.983-3.979-3.799-5.155c-0.724-1.086-5.608-9.68-6.06-10.402c-0.363-0.635-4.704-7.147-5.789-8.413    c-2.353-2.803-4.523-5.246-9.771-5.246c-0.813,0-1.719,0-2.985,0.271v5.066c0,5.338,0.092,15.469,0.182,16.825    c0.181,1.899,0.905,3.526,2.263,3.526h5.696c0.635,0,0.725,0.273,0.725,0.726v1.989c0,0.634-0.09,0.813-0.995,0.813    c-0.995,0-3.255-0.271-11.851-0.271c-8.231,0-10.311,0.271-11.307,0.271c-0.724,0-0.724-0.271-0.724-0.723v-2.08    c0-0.452,0-0.726,0.453-0.726h3.709c1.989,0,3.526-0.632,3.526-3.074c0.181-8.955,0.181-17.459,0.181-26.051V1506.619z     M1766.021,1515.573c1.357,0.271,2.353,0.362,4.07,0.362c16.464,0,19.629-11.307,19.629-15.106c0-4.161-1.899-8.141-4.522-10.312    c-3.527-2.805-7.507-4.161-15.017-4.161c-1.085,0-2.261,0.181-3.073,0.724c-0.635,0.452-1.087,1.446-1.087,2.896V1515.573z"></path>
		</g>
		<g>
			<g>
				<path fill="#00C2CB" d="M609.828,1050.972c27.411,31.289,65.211,55.197,102.731,72.47c36.333,16.725,86.067,29.616,94.088,75.542     c3.192,18.277-0.149,37.244-5.352,54.837c-5.517,18.649-12.221,37.559-20.877,54.987c-9.066,18.25-20.265,35.201-32.685,51.331     c-12.96,16.832-24.062,26.663-38.065,42.654c-0.3,0.342,1.146-1.345,1.473-1.672c11.187-11.205,22.498-12.439,33.585-23.72     c9.894-10.065,18.18-20.003,26.232-31.582c16.333-23.487,28.106-49.162,37.59-76.084c1.669-4.738,3.279-9.582,4.749-14.497     c-0.098,1.454-0.243,2.908-0.373,4.362c-0.115,0.47-0.219,0.935-0.338,1.404c-0.052,0.206,0.048,0.341,0.182,0.423     c-0.281,2.898-0.61,5.796-1.027,8.697c-2.655,18.468-6.019,37.042-10.25,55.216c-7.698,33.065-18.37,66.52-38.819,94.071     c-0.122,0.162,0.15,0.372,0.277,0.216c21.8-26.881,35.216-59.548,43.3-92.975c4.666-19.289,8.69-38.985,11.247-58.674     c1.152-8.865,2.087-17.847,2.196-26.787c8.463-30.415,11.597-61.276,4.028-92.814c-1.821-7.583-4.073-14.948-6.73-22.103     c0.959-2.936,2.101-5.771,2.75-8.859c1.043-4.972,1.439-10.028,2.827-14.939c5.557-19.646,19.686-31.601,37.931-39.594     c0.614-0.27,1.235-0.531,1.855-0.797c14.466-0.005,28.983,1.34,43.472,1.81c4.694,2.539,9.095,5.773,12.545,9.596     c4.183,4.628,8.258,10.377,13.422,13.959c5.581,3.867,10.915,7.367,17.665,8.694c6.342,1.246,12.515-2.128,18.74-2.621     c2.208-0.176,4.291-3.264,2.064-4.985c-7.5-5.804-12.333-14.357-19.914-20.003c-5.121-3.813-10.088-4.995-15.301-5.566     c9.357-1.028,18.593-2.76,27.665-5.137c13.182-0.87,26.235-2.538,37.849-9.472c5.744-3.432,13.388-8.367,14.84-15.528     c1.643-8.102-0.789-15.886-1.899-23.898c-0.207-1.494-2.091-1.863-3.21-1.307c-9.375,4.66-15.938,12.913-21.964,21.242     c-4.652,6.43-10.952,12.664-14.51,19.972c-1.436,0.638-2.815,1.371-4.097,2.293c-17.776,3.392-35.914,4.581-54.306,3.867     c-9.713-0.377-19.405-1.47-29.108-2.186c13.308-4.874,26.868-9.784,39.428-16.133c0.237,0.005,0.485-0.025,0.758-0.15     c12.808-5.861,28.833-12.243,38.265-23.232c8.19-9.543,11.402-21.08,13.043-33.341c0.215-1.613-1.851-2.398-3.044-1.747     c-9.296,5.056-18.387,10.583-25.12,18.908c-5.808,7.182-5.993,16.577-6.678,25.421c-3.991,2.343-7.981,4.683-11.859,7.225     c-2.366,0.944-4.772,1.804-7.209,2.59c8.935-12.512,7.158-30.833,10.865-45.083c0.522-1.994-2.444-3.373-3.403-1.434     c-2.62,5.291-8.271,7.848-12.345,11.888c-3.099,3.076-4.135,7.451-4.987,11.548c-0.972,4.681-0.667,9.604-0.408,14.333     c0.217,3.921-0.431,7.877-0.448,11.761c-23.671,5.805-49.217,7.563-70.726,19.904c-0.329,0.188-0.641,0.394-0.967,0.585     c1.374-3.358,2.359-6.923,3.168-10.476c1.221-5.36,2.033-10.341,1.723-15.868c-0.42-7.471,0.861-13.782,2.441-21.004     c0.381-1.749-1.875-3.431-3.216-1.875c-7.494,8.69-16.88,18.02-18.612,29.955c-1.358,9.364,0.705,19.035,1.868,28.436     c-11.295,10.052-19.081,23.083-22.026,38.676c-7.684-14.302-17.316-27.531-28.957-39.571c-0.297-0.308-0.601-0.616-0.903-0.925     c-0.481-0.89-0.979-1.771-1.504-2.637c2.4-5.199,2.149-12.625,2.05-17.596c-0.259-12.896-5.522-25.103-5.182-38.007     c0.074-2.765-3.603-3.512-4.985-1.35c-6.63,10.37-15.299,22.042-10.775,35.042c1.051,3.021,2.344,5.94,3.808,8.783     c-7.552-6.835-15.441-13.732-23.1-20.86c-0.812-2.572-1.507-5.161-1.936-7.769c-1.229-7.429-1.324-15.211-0.962-22.725     c0.242-5.01,0.738-9.937,1.364-14.833c5.361-4.643,11.434-9.811,13.197-16.891c2.024-8.121,2.926-17.357,2.921-25.707     c-0.001-1.403-1.477-2.718-2.898-2.208c-20.781,7.477-26.729,34.906-21.088,55.173c-0.784,3.303-1.442,6.63-1.897,9.993     c-0.586,4.334-0.772,8.986-0.412,13.599c-6.38-6.521-12.346-13.288-17.511-20.419c0.296-2.94-0.482-5.586-0.988-8.743     c-0.038-0.235-0.065-0.472-0.101-0.709c4.616-4.962,6.928-11.521,10.294-17.624c3.086-5.596,8.806-13.418,7.276-20.208     c-0.312-1.386-2.219-2.247-3.423-1.393c-8.321,5.901-18.188,12.028-20.79,22.672c-0.761,3.114-1.401,6.987-1.545,10.947     c-3.24-6.388-5.745-13.079-7.276-20.143c2.67-6.363,5.885-12.836,6.806-19.645c1.019-7.518,0.271-14.966,0.325-22.513     c0.01-1.489-1.15-2.311-2.487-2.487c-3.423-0.453-7.981,5.294-9.699,7.592c-3.558,4.761-5.763,9.799-6.774,15.656     c-2.022,11.704,2.334,22.264,9.201,31.43c0.086,0.613,0.157,1.226,0.257,1.838c-8.592-11.904-22.858-20.682-36.938-22.341     c-1.61-0.189-2.684,1.679-2.328,3.059c5.25,20.465,24.185,33.854,44.107,37.527c2.262,5.982,5.171,11.755,8.79,17.217     c2.708,4.095,5.618,8.005,8.674,11.787c-13.041-9.312-28.583-14.563-45.224-13.972c-2.213,0.079-3.542,2.375-2.485,4.332     c6.217,11.503,15.164,22.158,28.372,25.531c8.422,2.151,16.755,1.176,25.267,2.189c4.89,0.584,9.583,2.12,14.265,3.722     c8.646,8.441,17.655,16.562,26.337,24.984c23.321,22.619,40.956,47.818,49.435,79.645c1.635,6.146,3.002,12.387,4.175,18.676     c-6.471-11.324-14.938-21.211-25.587-29.254c-16.035-12.112-34.745-19.977-53.368-27.178c-0.521-0.2-1.042-0.401-1.563-0.602     c-0.184-9.044-5.341-18.706-9.852-25.685c-7.969-12.324-18.104-23.842-29.689-32.854c-1.255-0.975-3.58-0.534-3.46,1.433     c0.977,16.222,3.89,31.652,15.479,43.849c1.274,1.343,2.572,2.682,3.89,4.014c-10.697-4.457-21.146-9.465-30.769-15.937     c-16.859-11.34-32.73-25.668-46.337-40.736c-1.899-2.103-3.813-4.321-5.722-6.622c0.442-2.906,1.263-5.76,2.734-8.553     c2.792-5.306,6.446-10.456,8.3-16.202c2.092-6.481,2.334-12.636,1.476-19.378c-0.68-5.345-3.801-10.085-4.902-15.355     c-0.524-2.509-4.042-2.18-4.739,0c-5.785,18.081-10.092,35.175-7.253,53.44c-0.046,0.13-0.089,0.259-0.132,0.388     c-19.888-25.874-36.409-61.067-18.304-90.943c9.754-16.098,25.459-24.959,43.365-29.312c4.78-1.162,9.649-2.24,14.567-3.16     c2.868,0.164,5.738,0.368,8.602,0.649c13.462,1.324,26.579,4.906,39.864,7.35c13.207,2.43,26.359,5.655,39.248,9.463     c7.779,2.3,15.008,5.203,22.146,8.452c4.336,9.804,3.667,21.928,5.923,32.601c1.598,7.569,4.375,15.793,10.109,21.312     c5.536,5.329,12.428,7.625,19.064,11.223c3.005,1.628,7.522-1.083,6.181-4.751c-4.841-13.237-6.717-32.778-14.522-46.556     c7.792,4.638,15.467,9.494,23.715,13.304c9.443,4.363,18.789,8.173,28.56,11.679c2.406,0.862,4.864,1.696,7.363,2.473     c9.849,5.645,20.418,9.419,32.185,7.726c16.1-2.316,29.792-10.166,41.337-21.431c1.979-1.93-0.037-5.345-2.678-4.603     c-10.361,2.914-21.075,3.147-31.514,5.521c-8.547,1.946-15.479,5.481-21.755,11.124c-3.147,0.045-6.386-0.059-9.256-0.738     c-9.35-3.749-18.332-8.956-26.656-13.897c-3.066-1.821-6.095-3.72-9.103-5.657c12.468-0.336,23.129-5.699,34.794-11.145     c15.369-7.173,31.14-13.895,48.001-16.562c5.755-0.286,11.645,0.438,16.382,3.466c6.659,4.255,11.563,10.655,17.629,15.672     c10.669,8.823,23.718,13.229,36.957,7.778c1.761-0.725,2.64-2.821,1.146-4.344c-13.717-13.993-31.725-30.513-52.369-26.613     c-2.608-0.152-5.241-0.192-7.887-0.125c-5.693-1.312-11.561-0.52-17.501,1.778c-10.5,1.791-20.708,4.71-29.728,7.876     c-2.478,0.868-4.981,1.853-7.504,2.881c7.489-10.065,5.783-28.519,10.353-38.998c0.735-1.682-0.927-4.141-2.822-2.824     c-10.009,6.952-20.679,14.325-26.293,25.556c-5.069,10.14-7.006,20.52-14.954,27.532c-3.455,0.45-6.929,0.565-10.423,0.198     c-3.565-0.375-7.084-1.075-10.568-1.97c-11.704-7.926-23.41-15.861-35.985-22.175c-7.64-3.837-15.886-7.184-24.422-9.987     c22.717-1.256,45.417-8.199,59.141-25.458c1.036-1.3,2.015-2.634,2.962-3.983c3.622-0.752,7.335-1.128,11.162-1.134     c6.431-0.01,13.008,0.734,19.386-0.345c14.443-2.447,26.414-10.511,33.591-23.354c0.983-1.76-0.214-4.749-2.556-4.455     c-17.607,2.207-38.993,1.735-52.526,13.02c0.739-1.729,1.433-3.478,2.07-5.249c1.828-2.581,2.698-5.978,2.969-9.73     c1.751-6.946,2.811-14.094,3.256-21.304c7.273-17.701,9.245-36.813,2.565-55.244c-0.419-1.153-1.625-2.103-2.919-1.657     c-15.913,5.488-15.362,23.521-13.506,37.48c1.328,9.987,3.48,19.887,4.441,29.918c0.435,4.521,0.138,8.794-0.235,13.086     c-2.773,6.412-6.34,12.434-10.868,17.738c-2.942,3.447-6.102,6.422-9.451,9.013c-2.754-10.272-16.619-21.336-21.634-27.151     c-1.501-1.74-2.904-3.543-4.23-5.392c0.38-0.215,0.601-0.643,0.269-1.097c-1.861-2.543-3.717-5.058-5.677-7.482     c-1.143-2.051-2.213-4.141-3.223-6.265c2.959-22.371-8.947-40.979-22.883-57.84c-1.761-2.128-4.698,0.213-4.247,2.471     c2.932,14.646-0.236,29.713,7.649,43.246c5.049,8.669,11.883,14.622,19.204,20.555c1.327,3.417,2.735,6.794,4.308,10.083     c3.472,7.264,7.48,13.368,12.545,19.599c2.832,3.482,6.319,7.364,7.48,11.839c0.347,1.343,0.61,2.463,0.962,3.5     c-8.274,4.352-17.437,7.035-27.302,8.786c-15.268,2.713-30.248,1.676-45.19-0.354c1.4-0.122,2.786-0.219,4.106-0.336     c5.668-0.5,11.232-1.283,16.639-3.175c11.499-4.022,18.967-11.27,25.494-21.376c1.429-2.212-0.515-4.521-2.734-4.765     c-13.269-1.458-27.724,0.458-38.851,8.411c-6.226,4.447-14.326,11.4-18.994,19.08c-13.089-2.092-26.21-4.274-39.532-4.704     c-3.61-0.116-7.257-0.125-10.912-0.009c7.115-3.416,15.689-5.438,21.709-8.58c12.326-6.431,23.32-14.723,32.843-24.856     c1.519-1.618,0.491-4.459-1.838-4.434c-14.62,0.151-29.434-4.42-41.749,6.065c-6.854,5.837-10.901,13.12-13.975,21.492     c-1.285,3.501-2.443,7.124-3.94,10.565c-0.036,0.046-0.071,0.092-0.107,0.137c-11.249,0.889-22.387,3.119-32.561,7.34     c2.512-3.204,4.651-6.695,6.169-10.66c4.744-12.39,5.575-25.817,9.862-38.357c0.609-1.79-1.549-3.207-3.059-2.352     c-11.387,6.455-21.909,15.741-26.429,28.398c-2.813,7.881-2.325,15.752-2.828,23.979c-0.192,3.143-0.843,6.302-1.529,9.464     c-4.577,3.705-8.736,8.078-12.338,13.233c-3.002,4.298-5.404,8.917-7.289,13.753c0.14-1.688,0.28-3.375,0.434-5.06     c0.917-9.922,3.733-19.322,5.229-29.123c1.278-8.374,2.506-16.778,4.336-25.054c3.153-14.242,7.661-28.549,13.67-42.171     c0.15-0.105,0.295-0.213,0.446-0.313c0.528-0.299,1.046-0.612,1.557-0.937c1.889-1.034,4.023-1.81,6.612-2.196     c8.199-1.223,16.412,0.045,24.612-0.683c16.797-1.493,28.934-9.614,40.5-21.447c1.344-1.374,0.292-3.413-1.473-3.556     c-14.462-1.164-29.479-3.227-43.152,3.021c-8.427,3.85-14.658,9.849-20.893,16.015c-1.267,0.219-2.542,0.486-3.808,0.808     c5.698-11.25,12.496-21.888,20.544-31.422c10.093-11.96,21.801-21.84,34.537-30.247c3.979-1.111,7.728-1.438,12.713,1.023     c5.203,2.566,10.169,5.588,15.394,8.109c11.306,5.453,21.785,7.509,33.595,2.381c1.867-0.81,1.876-4.122,0-4.929     c-11.446-4.925-19.036-14.685-32.208-15.872c-3.884-0.35-8.551-0.805-13.056-0.494c-0.002-0.001-0.003-0.002-0.006-0.002     c3.062-1.646,6.165-3.229,9.304-4.752c8.842-1.531,18.128-0.39,26.824,1.511c21.55,4.712,42.192,11.719,64.056,15.167     c16.229,2.561,32.208,3.451,48.281,2.006c25.589,3.107,62.386-2.807,71.305-29.229c0.469-1.386-0.524-3.042-1.918-3.378     c-19.219-4.647-35.276,9.02-43.618,25.211c-7.873,1.228-15.992,1.369-22.792,1.521c-10.083,0.225-19.955,0-29.725-0.846     c1.13-0.787,2.201-1.655,3.192-2.586c4.346-4.085,7.815-9.34,12.785-12.722c3.703-2.52,7.457-4.881,10.938-7.707     c1.827-1.481,0.159-4.046-1.738-4.195c-9.449-0.741-19.786-0.622-27.331,6.026c-3.78,3.331-5.979,6.805-8.242,11.26     c-1.43,2.812-3.846,5.268-5.429,7.964c-8.845-1.453-17.646-3.52-26.484-6.355c-15.182-4.869-30.285-11.188-46.055-14.063     c7.655-2.95,15.439-5.589,23.294-8.004c0.181,0.07,0.378,0.108,0.593,0.062c12.413-2.718,25.377-4.276,38.083-4.579     c10.367-0.245,20.905,0.637,31.213-0.653c13.438-1.681,23.949-9.31,24.612-23.555c0.076-1.631-1.839-3.316-3.467-2.642     c-9.617,3.99-20.266,2.371-29.955,6.796c-6.413,2.93-12.159,6.168-16.215,11.847c-0.583,0.216-1.156,0.451-1.724,0.691     c-7.849-0.027-15.634,0.882-23.438,1.865c-8.506,1.071-17.083,2.355-25.604,3.944c12.175-10.98,20.517-25.646,20.393-42.711     c-0.017-2.367-2.702-3.189-4.357-1.804c-8.628,7.224-16.897,15.614-21.677,25.973c-2.063,4.469-3.208,8.975-4.313,13.763     c-0.574,2.487-1.58,4.903-2.396,7.339c-5.612,1.283-11.181,2.712-16.648,4.362c-25.145,7.592-49.552,19.541-69.155,37.112     c0.526-1.032,1.05-2.064,1.576-3.094c7.796-15.287,16.793-29.78,26.795-43.522c0.038-0.025,0.077-0.038,0.113-0.072     c1.541-1.495,3.097-2.957,4.66-4.404c10.94-2.385,23.052,1.232,33.543-4.311c5.642-2.982,11.196-6.573,14.973-11.833     c2.308-3.216,5.371-6.396,6.98-10.041c1.486-3.368,1.98-7.177,3.779-10.377c0.793-1.411-0.521-3.449-2.204-2.866     c-17.206,5.958-34.637,14.661-48.653,26.901c10.253-12.397,21.365-24.116,33.194-35.183c8.769-6.177,18.127-11.806,28.773-13.911     c13.146-2.6,27.028-2.419,40.232-0.27c11.163,1.816,21.956,5.393,32.988,7.803c1.75,0.799,3.49,1.619,5.215,2.478     c9.56,4.767,18.835,9.828,27.975,15.24c0.506,8.59-1.341,17.296,0.838,25.828c2.627,10.295,8.308,19.604,15.075,27.714     c1.305,1.566,4.167,0.313,4.035-1.671c-0.911-13.642-0.418-31.458-7.561-44.182c8.38,5.569,16.612,11.635,25.789,15.637     c0.878,0.384,1.76,0.759,2.642,1.137c9.571,12.897,19.126,29.423,36.088,24.022c7.464-2.376,7.815-8.103,1.969-12.042     c-8.612-5.803-18.275-9.947-28.255-12.84c-15.096-10.117-28.184-23.87-43.624-33.347c-2.754-1.69-5.528-3.334-8.32-4.936     c10.87-0.276,21.729-1.904,32.035-5.073c2.38-0.731,4.849-1.506,7.322-2.371c9.401-1.067,18.507-3.383,26.903-9.176     c7.568-5.223,12.929-12.664,16.307-21.192c3.739-9.441,2.75-17.984,3.18-27.879c0.163-3.753-5.708-5.607-7.339-1.987     c-2.135,4.737-6.367,7.778-9.648,11.674c-3.535,4.197-7.078,8.484-9.616,13.384c-4.094,7.897-6.673,16.548-8.846,25.199     c-5.477,1.703-11.148,2.761-16.775,3.946c-5.182,1.09-10.366,2.637-15.477,4.263c-0.848-0.038-1.683-0.081-2.491-0.133     c-1.382-0.088-2.776-0.174-4.175-0.26c15.682-9.523,21.434-27.292,26.804-44.759c0.744-2.421-1.954-4.033-3.967-3.049     c-4.994,2.442-10.985,3.624-15.418,7.121c-4.443,3.507-8.376,8.115-11.189,13.05c-3.052,5.361-5.479,10.99-6.318,17.159     c-0.442,3.264-1.298,6.488-1.296,9.647c-4.041-0.372-8.058-0.858-11.966-1.591c-13.149-2.467-25.705-6.98-38.715-9.921     c-14.842-3.354-30.708-5.869-46.104-4.666c12.671-8.685,25.914-16.35,39.725-22.992c4.436,1,8.734,2.454,12.728,4.85     c5.402,3.242,10.589,6.653,16.732,8.295c11.155,2.982,20.536-6.954,27.84-13.674c1.749-1.608,0.389-4.658-1.914-4.622     c-9.743,0.147-21.5-3.97-32.5-4.756c7.957-3.081,16.075-5.869,24.354-8.365c26.915-8.116,54.351-15.31,82.099-21.086     c2.807-0.178,5.615-0.272,8.424-0.243c12.834,0.13,25.667,0.843,38.475,1.761c0.426,0.031,0.85,0.068,1.276,0.099     c8.398,7.152,16.475,15.433,20.548,25.825c2.747,7.009,4.926,14.231,7.472,21.316c-0.979,1.614-1.52,3.43-1.731,5.381     c-2.089,3.034-4.081,6.151-5.119,9.658c-1.579,5.337-2.281,10.665-2.578,16.215c-0.606,11.304,1.198,21.51,5.694,31.905     c0.644,1.489,2.836,1.507,3.86,0.498c6.754-6.671,8.9-17.35,8.621-26.558c-0.167-5.49-1.242-10.547-2.509-15.881     c-0.86-3.632-1.871-7.399-2.238-11.158c2.334,5.412,4.89,11.188,7.904,16.725c0.136,5.108,0.134,9.631,3.936,14.062     c4.175,4.866,10.475,10.336,16.232,13.225c8.131,4.08,22.028,5.323,28.157-2.978c1.023-1.387-0.083-3.343-1.539-3.784     c-8.717-2.638-14.82-9.398-23.032-12.938c-4.904-2.113-9.812-3.563-14.959-4.032c-1.4-0.963-2.833-1.843-4.327-2.531     c-0.617-0.282-1.164,0.404-0.719,0.931c0.423,0.499,0.876,0.978,1.35,1.443c-0.268,0.001-0.54,0.015-0.81,0.021     c-1.226-2.197-2.347-4.533-3.398-7.075c-0.066-0.161-0.201-0.265-0.353-0.32c-3.764-9.014-6.281-18.654-8.347-27.086     c-4.059-16.57-8.752-33.464-22.982-42.023c8.68,0.977,17.211,2.564,25.511,5.737c8.924,3.411,17.226,7.777,25.545,12.252     c4.187,3.896,7.615,8.73,7.745,14.005c0.147,5.975-0.421,11.701,1.532,17.456c3.465,10.216,16.804,18.246,27.192,15.635     c1.993-0.5,2.522-2.652,1.761-4.326c-3.573-7.876-8.381-21.339-15.484-31.36c16.34,7.006,34.33,11.47,51.735,7.91     c0.13-0.026,0.269-0.056,0.402-0.084c0.121,0.235,0.355,0.396,0.716,0.365c7.366-0.619,16.092-2.214,22.722,1.771     c5.372,3.229,10.703,7.138,16.979,8.447c9.288,1.937,22.451-0.026,29.285-7.264c1.905-2.018,1.021-5.194-1.591-6.027     c-12.176-3.879-24.259-9.137-36.174-8.826c4.255-1.856,8.665-3.063,13.017-4.587c0.381,0.018,0.76,0.048,1.141,0.054     c0.116,0.002,0.116-0.176,0-0.177c-0.238-0.002-0.473-0.022-0.711-0.03c0.628-0.224,1.256-0.453,1.881-0.694     c7.509-2.91,13.377-6.982,15.847-14.949c0.494-1.596-0.574-3.131-2.058-3.626c-9.832-3.279-21.313-0.591-28.955,6.466     c-6.953,6.422-11.547,16.358-19.25,22.027c-3.058,0.435-6.109,1.647-9.336,3.632c-6.758,0.949-13.397,0.879-17.994,0.154     c-4.705-0.742-9.233-1.901-13.645-3.361c1.462-0.429,2.876-0.805,4.162-0.922c6.41-0.584,12.965-1.15,18.937-3.745     c10.37-4.503,16.05-13.719,22.352-22.622c1.202-1.7-0.386-4.471-2.461-4.29c-10.628,0.934-23.161,0.617-32.084,7.508     c-6.273,4.844-11.128,10.315-13.866,17.26c-0.133,0.124-0.257,0.257-0.386,0.384c-2.348,0.561-4.588,1.363-6.638,2.558     c-5.314-2.341-10.505-5.034-15.667-7.896c-10.725-5.942-20.219-13.968-31.064-19.604c-10.817-5.619-23.777-10.01-36.814-11.907     c48.202-5.833,96.891-6.361,145.043,1.021c0.148,0.023,0.216-0.195,0.064-0.228c-61.378-13.122-124.331-13.633-186.318-4.224     c-46.396,7.042-93.275,15.727-137.307,32.399c-41.043,15.543-76.893,39.563-107.742,70.689     c-14.786,14.917-29.269,30.723-41.69,47.69c-13.105,17.898-23.271,37.555-32.948,57.456     c-9.301,19.124-19.579,38.32-25.419,58.881c-0.391,1.375-0.749,2.75-1.085,4.125c-2.796,6.752-5.252,13.639-7.336,20.623     c-6.203,18.649-10.3,38.091-12.66,57.542C559.968,958.489,575.305,1011.564,609.828,1050.972z M1133.656,590.014     c2.968-2.797,6.169-5.235,10.152-6.483c0.221-0.069,0.126-0.38-0.096-0.342c-5.778,0.99-10.199,4.358-14.352,8.216     c-1.295,0.485-2.625,0.998-3.957,1.559c6.937-8.318,14.986-15.2,26.212-13.007     C1148.25,586.509,1140.637,588.011,1133.656,590.014z M1124.415,607.746c-1.249-0.722-2.455-1.345-3.636-1.888     c3.206,1.091,6.781,1.748,9.839,2.699c4.475,1.39,8.928,2.824,13.647,2.916c0.359,0.007,0.452-0.577,0.085-0.639     c-5.538-0.945-10.776-3.149-15.932-5.307c-0.264-0.111-0.545-0.238-0.823-0.364c3.39-0.071,6.838,0.257,10.454,1.266     c5.761,1.608,11.304,3.91,16.896,6.062c-3.775,1.751-8.474,2.579-11.898,2.471     C1135.817,614.733,1130.458,611.237,1124.415,607.746z M1068.4,596.748c6.889-4.606,14.926-8.101,22.343-10.748     c0.143-0.049,0.088-0.265-0.063-0.227c-5.716,1.432-12.817,3.246-18.922,6.311c3.144-3.764,6.768-7.055,11.004-9.128     c6.785-3.321,14.19-3.924,21.603-4.418c-5.286,7.361-11.146,14.487-20.546,16.455     C1079.056,595.99,1073.624,596.059,1068.4,596.748z M1034.745,605.238c0.482,1.222,0.948,2.447,1.358,3.685     c1.77,5.32,3.429,10.675,5.431,15.914c0.081,0.208,0.408,0.129,0.342-0.096c-1.925-6.566-2.793-14.612-4.992-21.778     c1.487,2.4,2.813,4.846,4.042,7.055c4.128,7.421,7.62,15.154,10.898,22.98c-8.087-0.714-16.621-8.887-17.111-16.633     C1034.482,612.735,1034.881,608.943,1034.745,605.238z M1029.016,671.273c-4.477-1.382-7.745-3.612-11.43-6.376     c-5.467-4.099-9.347-8.544-12.488-13.861c0.616,0.117,1.229,0.239,1.843,0.378c3.214,2.673,7.083,4.844,10.428,7.092     c4.627,3.108,9.334,6.057,14.099,8.952c0.299,0.182,0.54-0.263,0.27-0.46c-4.515-3.3-9.039-6.582-13.564-9.867     c-1.703-1.237-3.394-2.626-5.113-3.996c5.273,1.796,10.334,4.334,14.755,7.531c4.546,3.286,8.903,6.763,13.797,9.416     C1037.93,671.935,1032.014,672.198,1029.016,671.273z M986.557,630.139c0.135,1.251,0.334,2.521,0.592,3.798     c-2.174,8.672-0.394,19.671,1.9,27.259c0.045,0.148,0.256,0.085,0.228-0.063c-1.015-5.746-1.08-11.794-0.64-17.612     c0.063-0.833,0.166-1.661,0.282-2.486c0.858,3.092,1.698,6.021,2.099,8.508c1.524,9.452,0.343,18.971-4.227,27.228     C979.817,662.37,981.471,645.199,986.557,630.139z M849.303,648.721c2.819-6.597,4.644-13.701,7.186-20.34     c0.085-0.22-0.273-0.368-0.379-0.16c-3.126,6.151-5.128,13.448-9.053,19.136c-0.399,0.578-0.823,1.148-1.246,1.715     c0.257-1.773,0.288-3.681,0.556-5.779c0.809-6.333,2.48-12.312,5.94-17.747c2.9-4.554,6.727-10.15,11.681-12.75     c2.272-1.192,4.637-2.168,7.003-3.143C866.305,624.233,860.99,638.647,849.303,648.721z M901.999,636.938     c1.015-1.678,1.865-3.498,2.47-5.519c0.089-0.296-0.356-0.41-0.456-0.125c-0.916,2.579-2.197,4.822-3.75,6.79     c-1.175,0.73-2.389,1.416-3.698,2c-0.989,0.442-1.992,0.846-3.003,1.225c1.893-3.11,3.951-6.135,5.683-9.337     c2.399-4.431,4.451-9.053,7.466-13.123c3.126-4.224,7.372-8.191,11.147-12.384c-0.111,5.042-0.806,9.965-3.346,14.983     C911.409,627.578,907.437,633.033,901.999,636.938z M890.432,703.486c0.286,0.103,0.57,0.205,0.835,0.331     c1.778,0.838,3.53,1.719,5.196,2.764c3.828,2.396,8.053,4.999,10.7,8.733c0.13,0.183,0.425,0.021,0.308-0.18     c-2.41-4.09-6.22-7.447-10.112-10.084c-0.008-0.004-0.017-0.01-0.024-0.016c2.703,0.914,5.435,1.746,8.198,2.479     c1.203,0.58,2.398,1.177,3.581,1.809c2.99,1.597,15.742,8.34,5.798,10.329c-5.406,1.083-9.668-0.884-13.755-4.416     C897.023,711.667,893.625,707.708,890.432,703.486z M847.653,689.768c0.088-1.093,0.175-2.161,0.25-3.214     c0.198,1.095,0.435,2.176,0.654,3.215c1.125,5.314,2.813,10.427,4.92,15.429c0.144,0.34,0.686,0.219,0.571-0.158     c-1.401-4.6-2.474-9.271-3.126-14.039c-0.488-3.579-0.135-7.666-1.262-11.145c6.637,10.825,7.479,26.313,7.044,39.182     C851.106,710.09,846.727,701.147,847.653,689.768z M848.089,678.802c0.024,0.015,0.047,0.029,0.071,0.043     c-0.024,0.062-0.039,0.126-0.062,0.188C848.095,678.958,848.095,678.879,848.089,678.802z M795.122,607.786     c2.963,0.52,5.874,1.496,8.71,2.391c5.732,1.813,11.51,3.886,17.597,3.704c0.267-0.008,0.267-0.402,0-0.414     c-9.496-0.458-18.06-6.005-27.149-8.404c0.037-0.016,0.075-0.033,0.11-0.049c4.521-0.535,9.23-0.321,13.327-0.038     c8.27,0.57,16.438,2.737,24.588,4.48c-3.596,3.351-7.498,6.888-11.971,7.963c-7.639,1.837-13.721-2.722-19.878-6.538     C798.705,609.795,796.923,608.728,795.122,607.786z M680.22,700.237c-0.837-0.106-1.695-0.204-2.571-0.288     c1.598-1.047,3.247-2.031,5.041-2.849c6.412-2.926,13.022-5.369,19.53-8.063c0.103-0.042,0.067-0.205-0.047-0.172     c-5.524,1.648-11.098,3.016-16.575,4.736c9.945-6.942,20.608-12.718,32.45-16.862c-1.32,3.217-2.354,6.517-4.908,9.273     c-2.743,2.958-5.588,6.297-8.958,8.566C697.252,699.244,688.453,701.28,680.22,700.237z M864.802,752.876     c6.316-2.865,11.919-6.869,15.463-12.762c0.177-0.298-0.272-0.552-0.46-0.269c-5.33,7.953-14.478,11.765-24.301,13.645     c10.128-10.495,21.093-22.445,36.459-20.075C886.893,744.856,876.626,750.096,864.802,752.876z M794.992,754.104     c-0.321-0.036-0.644-0.065-0.966-0.103c0.595-0.585,1.167-1.188,1.696-1.813c3.442-4.07,6.603-8.468,9.392-13.011     c0.282-0.462-0.416-0.851-0.715-0.418c-3.245,4.687-6.915,8.359-11.024,11.623c1.118-2.302,2.02-4.678,2.883-6.313     c4.854-9.197,13.269-11.777,22.424-11.963c-4.832,3.656-9.54,7.074-13.525,12.094     C802.06,748.101,798.842,751.578,794.992,754.104z M767.185,826.942c-4.212-9.36-7.375-19.266-10.444-28.996     c-0.195-0.616-1.149-0.359-0.971,0.267c2.801,9.832,5.48,19.921,8.736,29.767c-4.148-4.058-8.176-8.366-10.883-13.54     c-5.518-10.542-4.837-21.624-6.022-32.751C758.61,794.854,767.152,809.483,767.185,826.942z M833.007,820.083     c0.141-11.015-1.081-22.074-3.4-32.677c-0.066-0.301-0.512-0.17-0.457,0.126c1.635,8.816,2.386,17.706,1.898,26.671     c-0.34,6.264-1.166,12.668-2.56,18.97c-0.862-5.196-1.993-10.024-2.563-13.417c-2.102-12.506-8.702-37.28,5.729-44.76     C836.618,789.753,836.535,805.13,833.007,820.083z M825.707,871.356c9.598-3.4,20.076-4.579,30.147-6.33     c0.297-0.052,0.228-0.552-0.07-0.524c-8.52,0.798-21.729-0.266-32.106,2.618c12.287-9.988,31.366-9.867,47.337-10.993     c-9.311,11.713-22.916,15.821-38.167,15.35C830.554,871.405,828.146,871.337,825.707,871.356z M934.212,924.096     c-0.208-0.169-0.417-0.31-0.625-0.471c1.517,0.307,3.021,0.701,4.495,1.281c6.531,2.573,11.877,6.575,16.578,11.75     c0.186,0.203,0.453-0.089,0.294-0.293c-4.93-6.296-12.843-12.982-21.348-15.58c3.822,0.051,7.622,0.363,11.332,1.026     c12.176,4.539,23.125,15.045,31.892,24.11C958.667,950.446,947.33,934.735,934.212,924.096z M864.563,932.674     c-4.406,1.839-8.872,3.729-13.393,5.374c6.327-4.711,11.578-10.376,13.458-18.644c0.077-0.336-0.408-0.47-0.511-0.143     c-2.872,9.063-8.379,13.081-16.459,17.112c-0.169,0.084-0.335,0.167-0.503,0.25c1.316-2.667,2.375-5.447,3.232-8.001     c2.605-7.776,5.302-15.501,10.977-21.645c3.651-3.954,7.737-7.368,11.977-10.624     C870.966,908.196,872.239,923.963,864.563,932.674z M918.61,960.856c-9.713,7.649-21.155,13.237-33.686,13.896     c-1.039,0.054-2.065,0.069-3.087,0.067c-1.14-0.154-2.276-0.346-3.411-0.568c1.093-0.108,2.146-0.238,3.123-0.368     c6.551-0.877,14.399-2.233,19.87-6.272c0.328-0.244,0.042-0.781-0.329-0.563c-5.961,3.496-14.585,3.434-21.324,3.511     c-1.087,0.012-2.254,0.05-3.444,0.084C889.23,962.635,903.807,962.609,918.61,960.856z M719.125,1027.661     c0.013,0.014,0.026,0.026,0.038,0.04c-3.059-0.997-6.209-1.748-9.159-2.41c-4.668-1.048-9.704-2.241-14.479-1.242     c-0.42,0.089-0.332,0.797,0.104,0.755c7.815-0.732,14.869,3.312,22.113,6.127c-5.315-0.373-10.637-0.106-15.979-0.653     c-14-1.435-23.283-8.904-30.477-19.867C688.481,1010.674,705.462,1017.168,719.125,1027.661z M689.918,975.751     c0.361,1.74,0.761,3.472,1.22,5.188c-1.623-0.941-3.215-1.934-4.731-3.054c-3.497-2.582-6.563-5.32-10.988-5.889     c-0.438-0.057-0.514,0.651-0.103,0.756c5.538,1.411,9.577,6.622,14.29,9.693c0.785,0.513,1.594,0.978,2.398,1.45     c0.021,0.068,0.042,0.137,0.063,0.207c-6.607-2.902-14.119-3.838-19.961-8.763c-6.794-5.727-13.075-12.555-16.387-20.859     C668.456,956.872,681.727,965.332,689.918,975.751z M690.873,956.391c-1.234-7.153-1.484-14.681-0.512-22.659     c0.045-0.365-0.575-0.446-0.639-0.086c-1.562,8.544-2.187,17.232-1.806,25.832c-1.482-5.479-2.582-11.157-2.404-16.45     c0.161-4.824,1.05-9.744,3.65-13.915c0.579-0.928,3.34-5.371,5.306-7.721c1.669,8.212,2.146,16.787-0.442,24.841     C692.932,949.642,691.762,952.973,690.873,956.391z M706.642,982.907c-0.169-1.551-0.271-3.112-0.289-4.677     c0.845-2.196,1.696-4.399,2.61-6.566c0.369-0.872,1.663-4.954,2.871-5.204c0.139-0.029,0.145-0.262,0-0.284     c-1.991-0.313-4.007,3.857-5.134,6.474c0.214-1.443,0.53-2.87,0.973-4.266c2.212-6.985,7.107-11.367,12.479-15.634     c-0.87,5.426-5.217,11.735-7.019,15.996C711.087,973.586,709.45,978.606,706.642,982.907z M735.955,979.461     c1.238-9.16,2.938-18.213,4.447-27.456c0.065-0.403-0.524-0.587-0.628-0.171c-2.211,8.825-5.308,17.505-8.078,26.249     c-0.202-14.516,2.006-29.055,15.723-35.976c0.23,6.953,0.026,15.124-1.726,21.366     C743.908,969.818,740.139,974.665,735.955,979.461z M1007.661,1037.452c-1.99,1.976-4.245,3.711-6.664,5.217     c-6.46,2.298-12.981,4.251-19.559,5.891c2.982-1.243,5.914-2.603,8.599-4.453c5.86-4.042,10.422-8.505,13.475-15.022     c0.128-0.273-0.257-0.509-0.408-0.24c-4.641,8.22-11.504,12.151-19.681,16.123c-1.633,0.793-3.301,1.428-4.953,2.042     c4.405-5.18,8.987-10.194,13.159-15.59c5.374-6.946,10.626-13.908,18.125-18.482     C1011.289,1021.207,1014.218,1030.952,1007.661,1037.452z M921.402,1065.722c4.155,1.96,7.894,4.659,11.933,8.194     c4.915,4.298,9.742,8.82,15.859,11.328c0.218,0.09,0.369-0.276,0.16-0.379c-7.536-3.67-14.756-13.821-22.969-19.789     c7.743,2.391,15.748,2.658,22.253,9.107c4.617,4.577,8.449,9.83,12.996,14.424c-6.274,1.136-12.138,2.319-18.288-1.956     c-6.174-4.293-11.066-9.156-16.069-14.715C925.331,1069.771,923.435,1067.657,921.402,1065.722z M842.375,1040.776     c-1.028,5.091-2.035,10.648-3.834,15.813c1.48-7.902,1.429-16.525,1.521-24.086c0.006-0.582-0.835-0.56-0.888,0     c-0.861,8.921-3.329,18.104-4.02,27.127c-0.071,0.038-0.143,0.077-0.213,0.115c-0.397-5.345-2.854-11.376-2.973-15.953     c-0.302-11.522,4.796-19.794,11.225-28.055c-0.434,2.084-0.744,4.177-0.677,6.281     C842.717,1028.339,843.641,1034.502,842.375,1040.776z M927.081,1014.529c-0.601,2.988-1.407,5.849-2.492,8.609     c1.187-4.972,1.681-10.205,2.221-14.885c0.038-0.332-0.52-0.404-0.582-0.08c-0.944,4.888-1.894,9.867-3.609,14.555     c-0.435,1.192-0.914,2.364-1.412,3.527c-0.366-4.007-1.211-8.048-1.344-11.057c-0.373-8.51,0.538-14.262,7.649-19.637     c0.778-0.587,1.512-1.172,2.208-1.773C928.739,1000.688,928.458,1007.663,927.081,1014.529z M959.129,1011.892     c0.094-0.268-0.22-0.559-0.455-0.313c-1,1.056-2.023,2.062-3.058,3.029c-1.607,1.124-3.243,2.195-4.894,3.235     c1.063-2.173,2.079-4.396,3.486-6.38c3.456-4.87,7.497-9.171,10-14.652c0.187-0.408-0.383-0.764-0.614-0.358     c-3.233,5.7-8.264,9.884-12.25,15.009c-2.115,2.717-3.739,5.91-5.137,9.153c-0.319,0.191-0.638,0.384-0.957,0.575     c2.563-7.932,1.867-16.393,8.3-23.209c5.645-5.981,12.49-10.306,19.596-14.269     C971.231,994.485,967.489,1004.604,959.129,1011.892z M728.497,715.447c3.241-6.479,5.248-14.297,6.204-18.364     c0.054-0.225-0.27-0.311-0.341-0.095c-1.873,5.537-4.137,11.295-7.477,16.136c-0.628,0.911-1.297,1.731-1.982,2.518     c1.039-4.877,1.642-10.052,3.371-13.479c4.107-8.154,9.706-14.78,16.165-20.911C743.345,694.304,737.129,705.8,728.497,715.447z      M797.288,713.732c-2.748-0.331-5.498-0.649-8.25-0.92c6.39-2.078,12.685-4.262,19.318-5.444     c0.263-0.047,0.202-0.484-0.063-0.465c-7.754,0.546-16.828,1.149-24.995,3.561c5.361-4.293,11.838-7.388,18.404-9.151     c7.199-1.934,14.681-1.534,22.03-2.488C820.905,711.094,808.94,713.347,797.288,713.732z M672.589,750.755     c0.622-0.359,1.24-0.729,1.869-1.083c0.82-0.1,1.656-0.165,2.503-0.198c3.209,1.055,6.283,2.528,7.844,3.155     c5.736,2.301,11.229,5.042,16.797,7.711c0.205,0.099,0.374-0.183,0.179-0.306c-1.613-1.018-9.793-6.262-17.977-10.26     c3.796,0.447,7.444,1.271,10.326,2.08c8.298,2.328,15.567,7.734,22.328,13.208c-14.363,2.999-25.308-6.097-38.581-12.004     C676.321,752.366,674.496,751.468,672.589,750.755z M628.02,817.321c1.059-0.412,2.103-0.79,3.119-1.098     c7.494-2.257,15.133-4.007,22.604-6.354c0.221-0.068,0.129-0.387-0.094-0.341c-8.495,1.715-17.329,2.039-25.756,4.028     c-3.057,0.723-6.94,1.411-10.361,2.752c4.261-3.855,8.642-7.562,13.936-9.934c12.625-5.654,25.443-4.791,38.681-3.607     c-6.498,5.872-13.899,10.579-22.498,12.917C641.016,817.489,634.585,817.45,628.02,817.321z M610.378,894.926     c-0.311,0.161-0.624,0.313-0.934,0.479c0.046-0.46,0.089-0.918,0.139-1.365c0.991-9.147,3.725-18.227,8.369-26.166     c0.099-0.167-0.147-0.298-0.257-0.147c-4.729,6.479-9.22,14.584-12.031,22.942c0.077-5.397,0.235-10.749,1.541-15.721     c3.052-11.609,10.136-20.925,19.713-27.677c-2.6,10.25-3.469,20.982-7.162,30.881     C617.492,884.217,614.174,889.73,610.378,894.926z M666.448,875.699c-0.979,0.394-1.975,0.812-2.973,1.252     c0.924-0.77,1.841-1.538,2.777-2.307c6.625-5.438,14.093-9.961,19.945-16.276c0.207-0.223-0.112-0.544-0.334-0.334     c-8.064,7.622-19.091,11.949-28.079,18.441c2.208-6.183,4.764-12.45,9.42-16.89c10.889-10.384,22.42-8.504,35.487-7.978     C692.248,861.817,680.028,870.244,666.448,875.699z M727.702,885.866c6.148-3.561,12.14-7.358,18.091-11.242     c0.324-0.211,0.043-0.681-0.298-0.513c-7.582,3.773-15.252,7.334-22.743,11.294c-1.479,0.782-3.011,1.54-4.551,2.312     c-1.003,0.254-1.999,0.534-2.972,0.857c0.469-0.629,0.952-1.246,1.462-1.84c3.979-4.631,8.335-8.979,13.553-12.223     c8.874-5.517,18.285-7.381,28.301-7.012C750.712,877.646,740.757,883.409,727.702,885.866z M780.195,936.162     c0.634,0.314,1.272,0.632,1.909,0.951c2.614,3.56,4.4,7.462,6.005,12.368c2.193,6.703,4.19,13.458,5.36,20.422     c0.032,0.197,0.368,0.151,0.349-0.047c-0.357-3.612-2.199-19.15-6.058-29.827c1.109,0.6,2.21,1.215,3.305,1.837     c7.022,11.656,7.892,28.984,9.939,42.837c-5.703-3.049-10.867-6.367-13.886-13.151c-3.609-8.109-3.677-16.598-4.753-25.223     C781.903,942.642,781.213,939.245,780.195,936.162z M632.361,997.39c-0.222,5.487-1.82,10.145-4.023,14.707     c0.371-2.588,0.558-5.205,0.51-7.886c-0.009-0.542-0.782-0.524-0.829,0c-0.536,5.901-2.952,11.864-5.033,17.842     c-0.396,0.753-0.779,1.505-1.137,2.253c-0.038-13.863,3.398-27.22,7.753-40.557C631.065,988.14,632.56,992.47,632.361,997.39z      M728.496,1105.075c-2.308-1.864-4.6-3.747-6.882-5.64c-4.623-7.688-10.946-14.777-14.613-22.622     c-0.143-0.303-0.662-0.086-0.542,0.227c2.032,5.298,4.523,10.567,7.245,15.748c-5.891-4.946-12.674-10.559-15.803-17.32     c-3.144-6.789-4.571-13.946-5.373-21.286c9.874,8.052,18.964,18.033,25.94,28.515     C723.072,1089.61,727.024,1097.033,728.496,1105.075z M774.283,1058.702c-0.183-0.283-0.369-0.566-0.554-0.85     c0.168-3.312-0.228-6.729-0.576-9.921c-0.649-5.979-1.19-11.967-1.745-17.955c-0.06-0.636-1.006-0.661-1.006,0     c-0.009,5.988-0.234,11.971-0.27,17.955c-0.009,1.446-0.068,2.916-0.116,4.391c-2.03-3.021-3.999-6.09-5.586-9.41     c-5.479-11.467-2.273-20.257,3.151-29.519c1.246,7.982,4.063,15.563,5.582,23.643     C774.336,1043.27,775.697,1051.743,774.283,1058.702z"></path>
				<path fill="#00C2CB" d="M920.452,927.804c0.152,0,0.152,0.236,0,0.236C920.3,928.04,920.3,927.804,920.452,927.804z"></path>
				<path fill="#00C2CB" d="M843.003,1351.253c-1.329,13.138-1.859,26.358,0.267,39.443c2.045,12.587,6.58,25.003,9.949,37.292     c0.199,0.718,1.188,0.397,1.087-0.3c-3.963-26.769-7.253-52.191-3.96-79.286c0.496-4.077,1.071-8.138,1.68-12.193     c0.979-4.522,2.04-9.034,3.212-13.534c3.83-14.691,8.149-29.446,13.232-43.944c-2.995,21.369,0.418,41.536,11.351,60.363     c10.076,17.352,21.129,33.76,34.891,48.437c10.891,11.615,24.79,23.614,41.438,24.631c0.31,0.019,0.298-0.443,0-0.475     c-18.628-1.906-33.224-18.019-43.146-32.638c-9.819-14.469-18.135-30.88-23.422-47.569c-6.095-19.234-9.48-38.03-4.938-57.801     c1.951-4.959,3.801-9.956,5.241-15.099c3.831-13.679,8.613-27.097,14.879-39.862c6.748-13.744,13.904-27.7,22.334-40.719     c17.99-19.598,38.708-36.756,61.035-51.072c31.679-20.312,65.983-35.948,100.301-51.193     c35.171-15.624,69.779-32.465,97.653-59.72c9.067-8.865,17.16-18.722,23.703-29.401c1.776-1.216,3.54-2.441,5.354-3.626     c22.534-14.727,48.348-21.66,74.411-27.172c25.923-5.482,51.642-10.954,73.31-27.127c18.818-14.048,35.295-31.835,45.314-53.289     c35.2-75.375-4.417-157.996-57.855-213.055c-52.567-54.161-129.32-92.39-205.652-92.088c-0.611,0.002-0.609,0.938,0,0.948     c45.613,0.672,90.254,15.021,128.505,39.715c36.183,23.359,69.065,56.007,92.778,91.995c2.206,3.348,4.374,6.719,6.493,10.116     c-9.714-5.402-20.416-8.765-31.438-11.475c-15.807-3.886-33.021-4.691-48.477-10.247c-1.281-1.309-2.607-2.578-3.979-3.812     c-3.701-7.088-3.563-17.64-6.295-24.48c-3.413-8.549-7.679-16.614-15.897-21.341c-2.193-1.261-4.312,0.793-3.936,3.025     c2.057,12.131,0.694,22.639,8.68,32.922c1.502,1.934,3.05,3.721,4.668,5.364c-5.606-3.362-10.996-7.013-16.31-10.939     c-0.959-0.708-1.909-1.422-2.856-2.132c-13.17-12.495-32.475-15.702-50.202-14.755c-2.224,0.119-4.315,2.734-2.788,4.857     c6.243,8.684,14.327,13.881,24.854,15.845c6.187,1.155,11.823-0.236,17.967-0.354c4.365-0.085,8.773,0.744,12.979,2.113     c0.465,0.414,0.918,0.838,1.403,1.237c6.349,5.214,13.128,9.905,20.465,13.642c3.403,1.735,6.884,3.147,10.414,4.356     c-1.26,0.156-2.523,0.356-3.792,0.642c-11.166,2.513-22.248,7.709-30.777,15.406c-2.076,1.874-0.922,5.371,1.606,6.085     c12.048,3.412,25.563,7.492,37.163,0.224c5.082-3.184,9.493-8.07,14.811-10.748c5.399-2.72,10.843-3.495,16.526-3.286     c0.634,0.144,1.271,0.284,1.908,0.434c16.768,3.957,33.686,9.889,46.441,21.932c5.35,5.05,9.744,10.457,13.924,16.349     c10.756,22.785,17.641,46.945,16.767,73.237c-0.198,5.931-0.759,11.782-1.677,17.523c-4.738-23.401-25.94-40.738-47.495-51.577     c-1.009-3.495-2.024-6.979-2.389-10.641c-0.523-5.243-0.796-10.603-2.627-15.605c-4.057-11.088-11.296-20.358-19.878-28.348     c-2.672-2.49-6.774-0.029-5.985,3.484c3.123,13.915-2.022,26.891,6.779,39.559c0.622,0.894,1.295,1.739,1.99,2.559     c-29.32-9.384-60.369-10.663-90.208-17.836c-1.095-1.064-2.236-2.077-3.408-3.054c-6.952-18.666-8.421-40.223-24.413-54.214     c-1.24-1.086-3.738-0.871-4.067,1.074c-2.275,13.405-4.46,27.146,4.103,39.008c3.273,4.534,7.16,8.867,11.539,12.567     c-15.881-5.265-34.355-12.973-43.827-27.482c-0.359-0.55-0.701-1.114-1.038-1.677c-0.827-1.672-1.509-3.4-2.02-5.185     c-1.618-5.65-3.534-10.922-4.653-16.729c-0.43-2.232-0.897-4.406-1.435-6.545c-0.074-2.448-0.006-4.9,0.202-7.336     c0.212-2.483,0.565-4.934,1.038-7.348c1.273-3.549,2.563-7.344,3.175-11.085c2.126-5.533,4.97-10.686,8.476-15.245     c2.824-2.947,5.979-5.525,9.65-7.42c7.758-4,14.83-7.331,23.387-9.108c12.011-2.498,27.573-5.351,27.886-20.518     c0.046-2.229-2.144-3.672-4.198-3.198c-5.681,1.313-11.237,0.443-16.795,2.652c-3.965,1.575-8.199,3.147-11.739,5.559     c-5.819,3.968-10.402,8.989-13.884,14.934c-6.791,4.024-12.445,9.617-17.18,16.008c3.329-11.311,2.904-23.406,2.972-35.45     c0.015-2.569-3.273-2.62-4.141-0.561c-3.973,9.425-11.095,18.909-12.015,29.367c-0.554,6.3,1.902,12.33,1.395,18.508     c-0.487,5.922-0.33,11.73,0.072,17.659c-0.287,1.603-0.514,3.211-0.685,4.827c-0.478-1.28-0.989-2.559-1.568-3.836     c-5.031-11.138-12.499-20.727-20.365-29.957c-4.983-5.845-10.784-12.294-18.049-15.366c-7.821-4.822-16.118-8.224-24.708-11.729     c-1.979-0.807-3.45,1.772-2.58,3.355c5.504,10.015,7.104,18.876,18.307,24.146c5.553,2.612,12.961,2.4,18.037,5.779     c3.178,2.117,6.411,4.308,9.507,6.615c0.254,0.458,0.508,0.917,0.768,1.362c4.888,8.367,8.709,16.854,12.243,25.64     c-3.121-2.382-6.446-4.363-8.69-5.772c-13.669-8.581-27.732-12.986-43.389-16.739c-1.989-0.477-4.327,1.38-3.548,3.548     c4.211,11.748,10.928,21.542,22.47,26.96c6.025,2.829,12.857,3.603,19.429,3.524c7.911-0.095,15.139,2.553,21.323,7.166     c2.456,5.095,5.324,9.873,8.632,14.247c0.916,1.536,1.909,3.03,3.002,4.46c6.321,8.273,14.805,14.188,23.916,19.032     c-5.377-2.083-10.831-3.951-16.543-4.34c-11.039-0.752-21.926,1.595-32.968,1.08c-1.839-0.086-3.499,2.372-2.275,3.964     c7.308,9.51,19.862,13.452,31.573,13.464c7.08,0.008,12.566-2.077,19.173-4.395c8.732-3.063,16.07,0.164,24.605,0.759     c30.376,11.556,62.922,16.325,93.646,26.746c-8.037,2.652-15.41,7.016-22.496,12.186c-7.705,5.622-15.612,10.765-23.805,15.082     c-3.997-1.041-7.164-2.255-11.193-2.131c-6.607-3.998-12.647-9.553-19.592-12.565c-10.965-4.756-23.649-4.325-35.323-3.851     c-1.798,0.074-3.387,1.801-2.784,3.655c3.808,11.722,15.563,18.437,27.21,20.539c6.854,1.238,13.595,0.978,20.445-0.281     c3.925-0.721,8.989-2.547,12.975-2.025c0.402,0.053,0.783,0.106,1.16,0.155c-10.173,4.639-20.804,7.895-32.046,9.145     c-5.407-0.946-10.935-2.972-15.582-3.946c-9.54-2.001-18.475-3.055-28.096-0.995c-2.368,0.508-2.729,3.449-1.332,5.046     c8.515,9.74,18.507,17.891,32.094,17.317c6.63-0.28,13.675-4.18,18.895-8.003c4.945-3.624,10.361-6.405,15.672-9.419     c11.272-2.407,22.263-6.481,32.987-11.888c0.003-0.001,0.004-0.001,0.006-0.002c-5.24,10.063-6.434,22.825-6.12,34.112     c0.03,1.039,0.754,2.311,1.889,2.48c10.121,1.494,16.379-6.326,19.408-15.217c1.822-5.352,2.748-10.752,2.834-16.402     c0.072-4.815-0.236-10.944,2.851-15.028c0.784-1.038,1.628-1.928,2.446-2.815c4.612-2.199,9.351-3.952,14.292-4.731     c6.491-1.025,12.864-0.859,19.077,0.251c11.479,5.843,22.268,13.286,30.326,23.258c7.916,9.792,15.064,22.422,18.338,35.148     c-7.667,23.272-21.896,43.833-42.561,59.245c-2.08,1.551-4.184,3.004-6.312,4.378c3.196-7.672,4.914-15.886,6.505-24.059     c0.493-2.535,0.951-5.11,1.361-7.706c4.977-5.573,11.037-10.71,13.925-17.33c3.845-8.811,7.256-18.074,5.717-27.803     c-0.252-1.585-2.279-1.71-3.274-0.865c-7.764,6.6-12.059,15.346-14.807,24.741c-0.125-3.665-0.499-7.301-1.203-10.874     c3.258-15.585-1.127-32.626-11.612-44.608c-1.358-1.553-3.653-0.211-3.766,1.56c-0.889,14.1,0.138,34.85,11.266,45.252     c0.534,0.499,1.218,0.585,1.815,0.404c0.053,6.333-0.922,12.768-2.367,19.082c-1.351-11.714-7.745-23.021-14.834-32.141     c-1.224-1.575-3.57-0.151-3.633,1.505c-0.371,10.003-3.266,20.858,1.677,30.243c2.272,4.313,5.578,8.003,7.767,12.348     c1.621,3.221,1.559,6.603,2.827,9.718c-2.495,8.071-5.184,16.358-10.313,23.124c-1.889,2.49-3.867,4.884-5.846,7.275     c-10.035,4.233-20.573,7.276-31.658,9.785c-19.991,4.524-39.975,8.496-58.177,18.381c-5.996,3.256-11.851,6.69-17.549,10.334     c1.37-1.862,2.648-3.639,3.835-5.071c6.85-8.275,14.605-14.019,22.76-20.843c0.315-0.264,0.622-0.542,0.934-0.81     c1.851-0.358,3.765-0.517,5.817-0.354c5.092,0.404,10.273,1.93,15.392,1.897c12.2-0.081,22.105-6.136,31.234-13.762     c2.037-1.703,0.416-5.476-2.188-5.283c-12.854,0.952-26.627,0.894-38.815,5.54c3.084-3.984,5.753-8.272,7.789-12.816     c0.307,0.209,0.689,0.289,1.09,0.121c4.371-1.813,6.232-5.187,9.828-8.09c3.904-3.154,7.809-6.109,10.729-10.265     c5.879-8.374,8.639-18.027,8.41-28.232c-0.052-2.313-2.314-3.278-4.242-2.436c-8.371,3.669-19.346,13.254-22.827,21.84     c-2.313,5.707-1.402,12.365-1.985,18.515c-2.636,6.346-6.952,11.917-12.06,16.864c2.24-5.949,2.571-12.58,2.379-18.959     c-0.383-12.636-1.521-25.22-2.149-37.846c-0.131-2.648-3.398-3.479-4.854-1.314c-6.802,10.095-12.439,21.452-13.318,33.8     c-0.87,12.237,4.205,20.292,10.262,30.481c0.066,0.11,0.142,0.202,0.215,0.297c-2.185,1.707-4.423,3.329-6.664,4.878     c-1.304,0.578-2.482,1.348-3.479,2.35c-1.065,0.705-2.123,1.393-3.171,2.066c-5.015,3.221-10.115,6.714-14.886,10.531     c1.651-7.753,2.442-15.764,2.206-23.996c-0.839-29.227-13.533-55.992-32.418-77.888c-2.223-3.304-4.535-6.514-6.973-9.568     c-9.789-12.262-21.181-22.733-34.106-31.643c-5.708-3.936-11.547-7.465-17.494-10.687c-0.575-0.836-1.153-1.677-1.74-2.521     c3.385-6.025,2.259-16.065,1.492-22.013c-1.712-13.281-10.575-24.827-14.687-37.376c-0.795-2.425-3.67-2.603-5.086-0.665     c-11.801,16.158-6.51,37.028,3.971,54.732c-12.279-5.39-24.977-9.701-38.004-13.438c-5.53-1.923-11.096-3.683-16.681-5.277     c-1.839-2.26-3.614-4.596-5.413-7.041c-3.295-4.478-7.355-8.304-10.156-13.168c-6.727-11.674-5.897-24.496-3.268-37.313     c0.552-2.684,1.195-5.362,1.956-8c4.863-1.964,9.325-3.119,14.947-3.339c5.024-0.198,9.386-0.906,14.13-2.646     c8.654-3.175,15.92-12.572,17.343-21.656c0.348-2.224-1.317-4.43-3.76-3.758c-12.799,3.513-26.406,8.157-36.622,16.586     c3.241-5.763,7.49-10.89,13.151-14.865c1.761-1.236,3.585-2.379,5.438-3.482c0.145,0.063,0.313,0.076,0.446-0.053     c0.166-0.161,0.309-0.325,0.471-0.486c3.276-1.922,6.614-3.75,9.81-5.764c3.872-1.926,7.675-4.023,10.636-7.112     c6.618-6.908,4.072-18.219,0.894-25.989c-0.763-1.865-3.394-2.659-4.549-0.594c-3.575,6.396-7.476,12.85-9.839,19.827     c-1.291,3.807-2.418,7.704-3.885,11.447c-4.978,2.8-9.463,5.86-13.664,9.555c-2.963,1.365-5.844,2.889-8.53,4.771     c-11.843,8.291-19.817,25.075-22.338,38.974c-4.345-12.77-14.006-23.757-23.824-33.189c-1.72-1.651-4.551-0.456-4.609,1.909     c-0.309,12.116,0.549,25.811,8.176,35.779c3.341,4.364,8.103,6.268,12.642,9.045c2.095,1.283,4.138,2.676,6.171,4.09     c0.295,8.776,2.376,17.369,7.528,24.881c1.445,2.11,3.053,4.22,4.819,6.202c-3.156-0.652-6.308-1.261-9.455-1.806     c-21.262-6.013-42.026-14.025-58.607-28.624c1.542-3.031,2.158-6.801,3.318-9.881c1.58-4.188,3.404-8.865,3.472-13.416     c0.168-11.388-5.8-20.996-10.391-31.041c-0.906-1.982-3.961-1.324-4.461,0.583c-3.654,13.87-6.379,27.833-3.545,41.778     c-8.583-9.967-15.901-21.015-19.163-34c-0.977-3.891-1.696-7.78-2.188-11.672c3.061-11.356,12.611-20.166,17.647-30.675     c5.038-10.514,2.063-19.248-0.191-30.093c-0.292-1.401-1.74-1.872-2.973-1.689c-2.682,0.4-4.447,5.73-5.56,7.737     c-2.076,3.744-4.076,7.538-5.713,11.5c-3.381,8.172-5.231,16.266-5.201,24.913c-1.239,11.097-1.039,22.498,0.743,33.591     c-6.54-10.083-17.072-17.781-25.02-26.941c-1.605-1.849-5.459-0.478-5.113,2.118c1.126,8.463,1.572,18.533,8.158,24.882     c6.999,6.75,16.524,11.88,25.636,15.593c2.099,6.705,4.828,13.168,8.278,19.209c5.08,8.896,11.582,16.322,19.04,22.598     c-2.742-0.911-5.556-1.658-8.386-2.29c-7.655-1.709-15.479-1.97-23.2-3.245c-5.726-0.945-11.063-3.214-16.869-3.69     c-2.34-0.192-4.026,2.857-2.735,4.767c7.059,10.454,16.342,24.233,29.99,26.185c7.1,1.016,13.021-0.216,19.47-3.285     c7.439-3.538,15.269-4.848,23.246-4.392c14.009,7.153,29.44,12.067,44.454,15.981c23.638,6.163,47.355,11.313,69.757,20.197     c20.37,10.469,39.816,22.966,56.5,38.042c-8.808-2.121-17.914-1.295-27.045-0.056c-2.086,0.283-4.183,0.566-6.284,0.845     c-0.127-0.077-0.285-0.103-0.437-0.012c-0.042,0.025-0.074,0.059-0.114,0.085c-0.963,0.126-1.924,0.252-2.889,0.375     c-0.8-0.259-1.597-0.531-2.392-0.807c-3.915-7.711-9.983-13.77-16.764-19.184c-8.106-6.475-17.555-9.688-26.15-15.248     c-1.883-1.218-4.802,0.815-3.95,3.037c4.539,11.835,12.087,23.605,24.179,28.803c3.981,1.711,7.892,3.42,11.823,4.865     c-7.016,0.622-14.039,0.938-20.993,0.661c-3.118-0.959-6.307-1.584-9.522-2.079c-6.279-5.257-10.798-12.434-17.773-16.807     c-3.611-2.263-7.248-3.635-11.535-4.106c-5.649-0.62-12.925,0.137-17.691-3.395c-2.129-1.577-5.304,1.566-3.693,3.693     c6.4,8.458,13.816,16.314,23.552,20.821c8.13,3.762,17.513,4.996,26.748,5.15c0.239,0.135,0.477,0.274,0.716,0.406     c0.301,0.168,0.6-0.111,0.563-0.39c2.882,0.017,5.743-0.066,8.543-0.203c10.351,0.83,20.978,0.278,31.978-0.312     c-0.024,0.026-0.048,0.056-0.073,0.083c-0.108,0.117-0.219,0.233-0.327,0.348c-11.289,3.096-22.041,9.166-30.084,16.863     c-1.737,1.663-0.684,4.204,1.311,4.961c10.114,3.831,19.684,1.857,28.155-4.674c3.55-2.738,6.356-6.197,9.51-9.351     c3.438-3.443,7.601-5.46,11.216-8.57c0.31-0.266,0.474-0.562,0.568-0.866c8.646-0.203,17.255,0.569,24.752,4.608     c3.09,1.663,6.001,3.538,8.905,5.374c7.667,8.696,14.436,18.134,20.032,28.398c12.217,22.413,16.377,49.078,9.382,73.626     c-0.354-9.374-2.314-18.781-6.047-27.854c-12.188-29.626-36.585-45.521-67.875-49.416c-29.668-3.691-60.356,0.363-89.999,2.86     c-4.309,0.363-8.642,0.667-12.991,0.918c-5.529-1.838-10.96-3.9-15.95-6.615c-7.753-4.216-15.135-9.554-21.617-15.725     c-0.579-0.984-1.135-1.98-1.655-2.996c3.908-10.531,8.376-20.58,7.206-32.268c-1.261-12.619-5.703-24.424-8.581-36.704     c-0.505-2.149-3.985-2.242-4.426,0c-3.57,18.168-8.201,36.485-4.464,55.051c0.311,1.542,0.667,3.101,1.066,4.659     c-0.148-0.182-0.294-0.366-0.444-0.542c-8.176-10.661-15.18-22.156-22.681-33.283c-0.729-17.91-22.901-34.09-36.99-40.941     c-1.559-0.758-3.809,0.911-2.608,2.608c6.976,9.864,7.193,22.782,16.813,30.966c4.233,3.602,8.646,6.994,13.105,10.329     c-7.41-3.251-15.266-5.209-22.722-8.625c-1.931-0.884-4.97,0.597-4.024,3.093c4.666,12.301,13.559,19.737,25.441,24.826     c8.431,3.609,17.016,6.902,25.556,10.287c3.465,5.819,7.253,11.425,11.673,16.621c6.271,7.372,14.261,14.564,23.178,19.904     c-18.045-0.027-36.109-1.541-53.586-5.549c-19.241-4.414-38.211-10.77-51.93-23.411c-0.911-8.714-1.184-17.518-4.525-25.759     c-3.764-9.28-8.773-17.73-14.428-25.975c-0.974-1.418-3.748-1.553-4.089,0.534c-2.341,14.345-4.229,27.838,4.719,40.525     c5.101,7.233,11.27,12.025,18.259,16.048c0.02,0.066,0.036,0.13,0.056,0.196c0.079,0.257,0.307,0.287,0.481,0.195     c6.295,7.142,13.743,13.234,21.88,17.612c1.36,0.731,2.733,1.42,4.106,2.099c-14.219-1.521-28.688,1.009-43.184,5.265     c-1.205,0.354-2.15,1.483-2.112,2.774c0.003,0.126,0.007,0.253,0.011,0.379c0.033,1.195,0.838,2.53,2.103,2.764     c5.978,1.107,10.055,5.86,16.048,7.099c4.908,1.015,10.648,0.202,15.467-1.012c9.953-2.509,19.819-7.541,30.024-9.781     c14.973,4.941,30.585,7.505,46.483,8.62c-10.07,7.674-15.208,26.48-17.154,36.546c-0.408,2.119,0.906,3.961,3.107,4.077     c12.34,0.65,21.468-6.271,26.857-17.011c1.746-3.481,2.456-7.428,3.006-11.244c0.52-3.61,2.176-7.867,2.176-11.442     c0-0.084-0.018-0.147-0.021-0.227c29.005,0.319,58.47-2.839,86.236-3.808c27.249-0.95,62.395-0.35,80.189,24.225     c10.34,14.279,14.497,30.952,14.735,48.398c0.096,6.973,0.086,13.897-0.528,20.658c-17.55,25.396-44.434,44.501-71.146,58.893     c-29.394,15.838-60.756,27.78-90.845,42.309c17.029-13.431,33.484-27.483,42.605-47.838c1.049-2.34,1.967-4.696,2.79-7.062     c1.351-1.544,2.656-3.129,3.813-4.835c3.793-5.599,7.44-11.457,11.229-17.173c0.729-0.287,1.485-0.493,2.348-0.4     c2.801,0.301,5.42,1.41,7.971,2.537c3.066,1.358,6.613,3.411,10.067,3.38c11.505-0.1,22.344-4.616,33.003-8.46     c2.803-1.011,2.887-4.788,0-5.767c-9.68-3.282-20.107-6.851-30.422-7.052c-3.627-0.069-8.489,0.046-12.518,1.411     c4.452-5.383,9.256-10.355,13.953-15.449c4.518-2.339,8.854-5.055,13.873-6.009c7.388-1.403,14.665-1.294,21.609-4.487     c10.264-4.718,20.737-13.378,19.754-25.778c-0.187-2.351-2.118-3.971-4.496-3.424c-5.597,1.283-10.431,4.262-15.895,5.852     c-3.904,1.138-7.974,2.317-11.295,4.781c-4.342,3.224-8.276,7.072-11.38,11.501c-1.59,1.351-3.198,2.691-4.879,3.963     c2.219-4.662,3.946-9.524,5.148-13.915c2.864-10.467,2.894-20.54-0.636-30.853c-0.412-1.207-2.162-1.985-3.121-0.823     c-12.008,14.549-9.499,33.098-10.645,50.772c-0.242,0.454-0.46,0.915-0.689,1.37c-7.667,4.805-15.33,9.737-20.996,16.955     c-3.797,4.84-7.622,9.91-11.232,15.123c0.014-8.776-1.37-17.584-4.114-26.307c4.883-7.873,12.001-14.539,14.859-23.494     c3.188-9.989,3.63-20.421,2.96-30.825c-0.102-1.56-1.788-2.8-3.26-1.871c-10.728,6.783-16.556,18.451-18.609,30.742     c-0.601,3.602-1.159,7.484-1.456,11.433c-3.598-7.684-8.039-15.104-13.146-21.986c-1.288-6.881-5.233-13.814-9.293-19.055     c-7.196-9.297-17.113-13.726-27.262-19.015c-1.683-0.878-3.899,0.561-3.304,2.54c3.368,11.202,6.729,26.366,17.983,32.527     c6.078,3.332,11.703,6.122,17.377,10.163c3.036,2.166,5.813,4.492,8.428,6.97c2.989,7.917,4.833,16.372,5.486,25.388     c0.173,2.392,0.281,4.824,0.319,7.28c-4.186-12.413-14.961-24.203-23.985-31.34c-1.552-1.225-4.694-0.694-4.443,1.841     c1.183,11.911,1.969,23.514,9.474,33.35c3.365,4.408,7.802,7.894,11.378,12.118c2.275,2.687,3.8,5.727,5.384,8.751     c-1.859,9.215-4.971,18.107-9.68,25.894c-6.177,10.219-14.962,17.722-22.828,26.555c-8.703,9.774-17.021,19.6-27.206,27.953     c-12.693,10.413-26.62,19.274-39.416,29.486c-13.532,9.536-26.402,19.99-38.263,31.616c-11.887,11.65-22.78,24.1-32.422,37.371     c-0.407-5.537-1.137-11.022-2.082-16.339c-0.584-3.271-1.355-6.499-2.212-9.706c5.388-4.085,9.723-10.998,12.613-16.159     c5.95-10.619,7.191-21.25,6.19-33.26c-0.249-2.977-3.569-3.674-5.299-1.434c-9.123,11.832-15.484,24.036-17.209,38.148     c-1.713-5.658-3.35-11.325-4.489-17.095c0.083-0.113,0.148-0.251,0.169-0.422c0.458-4.021-0.206-7.895-1.175-11.723     c14.659-8.287,5.397-31.341,13.54-43.681c0.981-1.487-0.311-3.551-2.021-3.521c-10.824,0.19-16.713,10.333-19.021,19.854     c-2.544,10.491-0.12,19.835,3.334,29.282c-0.006,0.38-0.037,0.763-0.037,1.144c0.02,4.204,0.327,8.348,0.78,12.467     c-6.992-7.511-18.348-12.758-25.137-18.811c-2.458-2.191-6.432-0.098-5.574,3.246c2.907,11.345,7.333,22.184,15.735,30.548     c4.465,4.447,10.838,6.34,15.315,10.956c1.514,1.563,3.026,3.148,4.548,4.724c2.064,13.181,3.044,25.664,0.543,38.988     c-9.058,14.877-16.544,30.726-22.078,47.634c-5.546,16.953-9.048,34.483-11.608,52.214     C847.586,1322.768,844.463,1336.835,843.003,1351.253z M880.313,1144.019c0.402,2.923,0.858,5.841,1.353,8.755     c-0.593-0.683-1.182-1.274-1.566-1.678c-3.042-3.162-6.386-6.022-9.371-9.253c-0.372-0.403-0.905,0.177-0.587,0.586     c2.232,2.87,4.742,5.489,6.689,8.571c0.818,1.296,1.7,2.583,2.424,3.941c-1.094-0.845-2.307-1.651-3.701-2.411     c-9.782-5.332-13.744-14.382-17.5-23.937C866.002,1131.91,875.111,1137.196,880.313,1144.019z M882.703,1122.089     c-0.023-0.083-0.046-0.167-0.068-0.253c-0.19-9.91,1.297-19.656,3.213-29.645c0.065-0.333-0.426-0.478-0.513-0.142     c-1.785,6.877-3.766,13.936-5.041,21.059c-0.71-3.233-1.109-6.504-0.701-9.874c0.876-7.237,3.629-17.665,10.792-20.898     C885.403,1094.983,889.95,1109.725,882.703,1122.089z M890.359,1158.731c-0.095-0.315-0.189-0.631-0.285-0.947     c1.273-1.636,2.261-3.667,3.124-5.181c2.28-4.009,4.292-8.194,7.294-11.731c0.295-0.347-0.163-0.82-0.501-0.504     c-3.184,2.988-5.61,6.548-7.895,10.246c-0.306,0.494-0.655,0.988-1.018,1.483c2.79-10.395,7.929-19.171,14.696-28.008     c-0.076,7.903-1.503,15.444-5.859,22.58C897.169,1151.171,893.775,1154.956,890.359,1158.731z M1122.273,956.363     c-0.846,1.831-1.816,3.635-2.832,5.43c2.07-7.274,3.766-14.633,6.865-21.611c0.136-0.309-0.299-0.579-0.46-0.27     c-3.378,6.499-6.229,13.596-7.937,20.843c0.851-12.473,0.246-25.007,7.847-35.825     C1128.256,935.581,1126.94,946.245,1122.273,956.363z M1137.094,964.344c-0.554,0.056-1.118,0.114-1.68,0.171     c1.049-0.846,2.109-1.678,3.199-2.463c4.809-3.468,9.931-6.32,15.386-8.641c0.281-0.119,0.078-0.574-0.206-0.487     c-7.639,2.335-18.704,6.148-25.681,12.431c3.257-3.843,6.674-7.565,10.538-10.733c2.044-1.258,4.17-2.267,6.313-2.903     c6.281-1.858,12.955-3.506,19.501-4.882C1162.208,958.148,1147.425,963.279,1137.094,964.344z M1096.316,1002.471     c0.371-0.526,0.738-1.057,1.115-1.579c0.262-0.161,0.542-0.318,0.848-0.469c3.063-1.505,5.361-0.115,8.276,0.409     c5.654,1.017,11.247,1.799,16.994,1.177c0.409-0.045,0.43-0.646,0-0.652c-7.315-0.095-13.827-2.781-20.811-4.175     c6.253-1.743,14.121,0.279,19.993,1.765c4.59,1.165,9.109,2.483,13.589,3.951c-4.489,1.701-9.078,3.185-13.737,4.102     c-7.632,1.499-11.711,0.563-18.561-2.441C1102.612,1003.94,1099.522,1002.973,1096.316,1002.471z M1067.143,992.302     c0.506,1.417,1.032,2.863,1.363,4.342c-0.005,0.092-0.012,0.186-0.017,0.277c-4.822-6.185-11.185-11.413-13.84-19.071     c-0.136-0.392-0.735-0.236-0.627,0.175c2.168,8.299,8.272,16.003,14.197,22.701c-0.041,0.479-0.086,0.958-0.133,1.438     c-2.316-2.93-5.196-5.586-7.801-7.991c-5.678-5.244-10.445-10.729-12.134-18.523c-0.794-3.667-1.245-7.382-1.755-11.09     c5.369,4.351,10.16,9.685,13.899,15.32C1062.864,983.752,1065.569,987.905,1067.143,992.302z M1057.65,939.733     c-4.971-6.468-10.531-12.427-16.548-17.621c-0.343-0.296-0.838,0.184-0.502,0.503c6.263,5.948,11.48,12.38,15.651,19.3     c-2.388-2.209-4.991-4.063-7.881-5.354c-7.254-3.241-14.171-6.148-17.992-13.702c-2.262-4.471-3.765-9.201-5.408-13.898     C1038.567,914.208,1053.129,925.527,1057.65,939.733z M1087.109,957.02c-2.891,6.207-6.757,11.843-9.788,17.946     c-0.012-0.426-0.021-0.853-0.037-1.279c0.837-3.238,1.244-6.628,1.856-9.892c1.314-6.996,3.23-13.568,6.474-19.941     c0.31-0.609-0.578-1.139-0.92-0.539c-2.699,4.734-5.49,10.546-7.556,16.586c0.119-2.229,0.351-4.462,0.774-6.698     c1.892-9.997,5.597-19.506,13.415-25.99C1091.836,937.249,1091.354,947.91,1087.109,957.02z M901.835,850.557     c-5.928-5.968-10.754-13.24-14.004-22.235c-0.115-0.318-0.615-0.189-0.514,0.143c1.71,5.524,4.137,10.928,7.12,16.073     c-1.576-1.733-3.015-3.551-4.248-5.477c-6.712-10.486-7.147-19.997-5.824-31.2c4.765,7.048,9.144,14.391,12.116,22.383     C898.941,836.856,900.226,843.736,901.835,850.557z M1001.374,894.418c1.113,0.053,2.226,0.101,3.342,0.142     c-1.582,2.462-2.46,5.368-3.945,8.001c-1.86,3.294-3.892,6.506-6.386,9.364c-0.4,0.458,0.219,1.087,0.669,0.669     c3.105-2.883,5.843-6.269,8.145-9.825c0.656-1.015,1.339-2.014,1.921-3.032c-1.047,6.288-1.604,12.795-5.14,18.199     c-3.82,5.843-8.707,9.094-15.096,10.004C986.904,916.758,991.683,900.171,1001.374,894.418z M935.109,881.672     c-8.507,1.632-16.935,4.536-25.37,5.965c-0.435,0.075-0.322,0.765,0.103,0.756c5.958-0.102,12.01-0.868,17.981-2.082     c-1.225,0.455-2.45,0.913-3.679,1.354c-6.172,2.214-15.229,6.064-21.779,3.574c-2.657-1.01-4.97-2.584-7.307-4.119     C908.443,883.755,921.735,880.956,935.109,881.672z M931.68,814.038c7.215,2.357,14.731,4.027,21.483,7.363     c5.004,2.472,9.488,5.696,13.574,9.393c0.657,1.27,1.323,2.535,1.992,3.795c-6.53-5.309-14.579-8.215-21.887-12.462     c-0.271-0.159-0.476,0.229-0.238,0.408c5.938,4.532,12.359,8.362,18.7,12.303c-2.472-0.95-4.987-1.841-7.478-2.777     C947.173,828.059,937.568,823.348,931.68,814.038z M955.68,806.219c-3.25-4.588-6.639-9.073-10.305-13.358     c-0.174-0.203-0.534,0.072-0.372,0.288c5.194,6.862,9.509,14.281,13.554,21.865c-5.502-4.843-11.956-8.646-17.724-13.713     c-7.353-6.458-9.581-15.286-13.737-23.412C938.754,784.527,949.742,794.271,955.68,806.219z M995.229,828.363     c-0.109,5.785-2.131,11.403-3.732,17.033c0.728-7.377,0.103-15.311-0.077-22.054c-0.009-0.307-0.461-0.305-0.474,0     c-0.247,6.098-0.66,12.207-1.549,18.249c-0.249,1.691-0.547,3.373-0.804,5.055c-1.244-3.867-2.108-7.888-2.523-12.051     c-1.277-12.835,0.611-25.038,2.964-37.419C992.059,807.401,995.432,817.704,995.229,828.363z M1080.539,838.182     c-1.423-0.195-2.845-0.382-4.266-0.576c-5.268-3.166-11.119-5.501-16.783-7.564c-0.408-0.147-0.692,0.524-0.298,0.705     c3.95,1.796,7.758,3.855,11.521,5.997c-1.646-0.292-3.279-0.634-4.895-1.054c-2.705-0.978-5.381-2.108-8.021-3.435     c-0.234-0.12-0.432,0.03-0.494,0.219c-5.921-3.154-10.248-7.718-14.805-12.432c9.449,0.793,19.096,1.646,26.434,7.997     C1072.829,831.412,1076.426,835.155,1080.539,838.182z M1112.858,860.017c2.96-4.575,6.872-8.279,10.704-12.109     c0.095-0.095,0.203-0.192,0.301-0.288c2.479-1.089,4.99-2.036,7.506-2.832c-1.877,1.785-3.59,3.751-5.167,5.467     C1122.07,854.747,1117.722,858.222,1112.858,860.017z M1102.641,861.177c4.74-4.258,10.403-8.135,16.444-11.27     c-2.764,3.145-5.343,6.303-6.878,10.253c-0.012,0.031,0.003,0.053,0.003,0.081     C1109.239,861.235,1106.072,861.596,1102.641,861.177z M1122.743,836.652c-1.813-1.497-3.787-2.804-5.355-3.89     c-4.532-3.14-9.303-6.185-14.488-8.134c-0.25-0.094-0.426,0.325-0.182,0.433c4.963,2.195,9.557,5.487,13.728,8.92     c0.404,0.333,0.802,0.681,1.193,1.034c-3.777-1.505-7.492-3.086-11.089-4.585c-9.323-3.885-15.388-11.214-20.122-19.605     c6.289,2.363,12.51,4.513,18.222,8.579C1111.642,824.38,1117.83,829.801,1122.743,836.652z M942.182,698.044     c0.156,0.711,0.29,1.43,0.461,2.138c-4.365-3.308-9.557-5.42-14.397-8.819c-6.225-4.373-8.65-9.79-10.021-16.043     C926.563,682.655,936.229,688.942,942.182,698.044z M947.349,654.911c-0.825,1.139-1.584,2.251-2.289,3.351     c0.732-3.063,1.711-6.094,3.134-9.214c2.295-5.028,4.764-9.965,6.755-15.126c0.062-0.156-0.197-0.264-0.271-0.114     c-3.894,7.873-11.321,17.087-13.181,26.496c0.036-0.978,0.083-1.954,0.146-2.932c2.18-12.852,7.217-24.619,14.383-35.481     c1.193,5.093,2.603,10.472,1.298,15.19C955.485,643.741,951.35,649.383,947.349,654.911z M1083.668,655.142     c2.601-5.786,5.442-11.316,8.516-16.801c1.009,3.419,1.607,7.039,0.792,10.323c-1.107,4.461-3.635,6.836-6.942,8.816     c2.67-3.64,4.563-8.103,5.803-11.944c0.041-0.129-0.15-0.21-0.217-0.092c-1.796,3.261-3.91,6.25-6.18,9.194     c-1.092,1.418-2.297,2.741-3.459,4.094C1082.549,657.578,1083.107,656.393,1083.668,655.142z M1030.902,721.369     c-5.295-4.727-10.768-9.199-14.631-15.434c-0.264-0.425-0.887-0.053-0.664,0.389c2.953,5.872,7.574,12.293,13.036,17.026     c-3.532-1.615-7.362-2.902-10.026-5.567c-7.135-7.145-8.556-17.29-9.068-27.073     C1018.403,699.166,1026.64,709.776,1030.902,721.369z M1050.92,696.479c0.176-0.43,0.361-0.854,0.545-1.279     c9.381-0.411,21.466,0.656,25.938-7.569c0.238-0.439-0.396-0.804-0.666-0.388c-4.561,7.022-14.103,5.016-22.466,5.438     c9.479-6.635,21.665-9.839,33.053-12.636c-4.24,10.407-14.787,14.293-26.028,14.859     C1057.958,695.071,1054.157,695.347,1050.92,696.479z M1248.18,895.497c1.411-7.233,4.121-13.811,7.647-20.078     c0.569,8.499,1.321,16.997,2.031,25.474c0.591,7.055,1.708,14.798,0.357,21.915c-0.124-2.85-0.636-5.729-0.994-8.537     c-0.752-5.896-1.68-11.736-2.076-17.673c-0.021-0.303-0.462-0.306-0.474,0c-0.238,5.889-0.139,11.788,0.177,17.673     c0.166,3.079,0.078,6.287,0.365,9.412c-1.907-3.215-4.075-6.29-5.561-9.711C1247.12,908.146,1246.973,901.689,1248.18,895.497z      M1280.686,901.243c0.293-0.602,0.588-1.199,0.893-1.781c2.63-5.046,5.27-10.071,7.486-15.315     c0.173-0.409-0.385-0.771-0.613-0.358c-3.104,5.605-6.499,11.03-9.835,16.5c-1.074,1.76-2.256,3.554-3.335,5.4     c0.723-3.35,1.115-6.804,1.776-9.627c1.927-8.235,10.562-17.059,18.579-22.126c-0.704,8.643-3.83,17.749-10.304,23.514     C1283.84,898.78,1282.252,900.009,1280.686,901.243z M1259.882,933.771c-0.216-0.019-0.438-0.032-0.656-0.048     c2.869-0.675,5.726-1.412,8.733-1.751c4.399-0.495,8.797-0.671,13.221-0.692c0.434-0.002,0.402-0.599,0-0.652     c-1.646-0.218-3.648-0.525-5.817-0.805c6.023-0.481,12.044-0.823,18.106-0.904c-5.325,3.711-11.389,6.808-17.609,6.793     C1270.47,935.699,1265.242,934.233,1259.882,933.771z M1353.091,881.588c-0.053,0.202-0.109,0.401-0.163,0.601     c-1.65-6.458-4.539-12.729-7.809-17.584c-0.232-0.346-0.767-0.042-0.563,0.328c3.396,6.186,4.863,12.413,5.809,19.291     c-1.037-1.697-2.125-3.23-3.016-4.443c-3.873-5.271-7.829-9.875-7.82-16.867c0.003-3.784,0.344-7.545,0.527-11.314     C1346.666,860.129,1352.215,870.827,1353.091,881.588z M1358.354,851.823c-0.921-3.654-2.192-7.231-3.94-10.683     c-0.135-0.266-0.593-0.078-0.487,0.207c1.11,2.946,1.831,5.971,2.272,9.038c-2.217-5.05-5.184-9.797-6.438-15.34     c-1.297-5.735-1.773-11.452-1.81-17.242C1354.872,827.467,1358.66,840.015,1358.354,851.823z M1364.039,874.644     c-1.119,1.111-2.312,2.205-3.479,3.322c0.437-1.048,0.887-2.087,1.378-3.111c2.448-5.098,5.101-10.083,7.81-15.046     c0.11-0.203-0.184-0.373-0.306-0.181c-2.826,4.477-6.382,9.428-9.339,14.618c0.057-0.93,0.095-1.86,0.126-2.789     c3.245-9.264,7.634-18.013,14.589-25.008C1374.993,856.204,1370.572,868.162,1364.039,874.644z M1232.285,828.629     c3.744,0.365,7.725,0.639,11.495,0.052c-0.708,0.521-1.423,1.04-2.144,1.557c-3.315,0.396-6.615,0.959-9.969,1.078     c-4.377,0.152-8.758,0.155-13.135,0.288c-0.422,0.014-0.42,0.633,0,0.652c5.623,0.245,12.306,1.378,18.508,1.013     c-2.068,1.207-4.23,2.219-6.549,2.831c-11.229,2.961-20.072-2.702-27.547-10.143     C1212.813,825.105,1222.355,827.659,1232.285,828.629z M1253.312,807.159c2.747,1.613,5.522,3.275,8.365,4.744     c-0.608,0.107-1.216,0.211-1.823,0.322c-2.756-0.589-5.539-1.095-8.238-1.892c-5.112-1.507-9.541-4.275-14.895-4.912     c-0.266-0.032-0.322,0.412-0.063,0.464c6.037,1.211,10.694,5.296,16.525,7.013c0.36,0.106,0.724,0.197,1.086,0.299     c-3.618,0.564-7.255,0.926-10.981,0.618c-9.741-0.806-21.217-4.608-26.221-13.494     C1229.664,799.988,1242.088,800.574,1253.312,807.159z M1182.446,656.445c-0.386,0.601-0.769,1.202-1.142,1.812     c-0.017-2.055-0.1-4.12,0.006-6.124c0.218-4.071,0.5-8.143,1.024-12.188c0.025-0.201-0.303-0.237-0.351-0.047     c-1.094,4.404-2.335,9.663-2.832,14.794c-0.409-2.382-0.751-4.765-0.673-7.166c0.263-7.917,3.234-14.794,6.314-21.757     C1185.262,636.227,1185.313,646.315,1182.446,656.445z M1211.2,632.014c4.192-3.09,8.927-5.442,13.964-6.997     c0.294-0.092,0.172-0.512-0.127-0.457c-4.549,0.858-9.279,2.364-13.31,4.703c3.308-2.582,6.938-4.73,10.924-6.185     c6.74-2.461,12.761-3.086,19.471-3.551C1238.563,629.558,1220.746,629.23,1211.2,632.014z M1300.024,810.904     c0.697-0.396,1.396-0.795,2.096-1.201c-3.828,8.879-3.698,21.517-3.969,28.795c-0.011,0.274,0.38,0.256,0.414,0     c0.831-6.397,1.355-12.994,3.026-19.245c1.466-5.474,3.749-9.19,6.724-13.024c-1.327,4.999-1.406,10.784-1.628,15.343     c-0.398,8.215-3.75,22.772-13.415,23.935C1293.009,834.091,1294.321,821.022,1300.024,810.904z M1191.379,747.399     c6.68,0.382,13.016,2.208,19.396,3.948c-2.88,0.697-5.594,1.77-8.364,2.781c-1.903-0.192-3.817-0.319-5.654-0.522     c-3.657-0.404-7.092-0.236-10.621,0.794c-0.301,0.089-0.169,0.502,0.126,0.458c4.008-0.601,7.867,0.015,11.771,0.701     c-0.554,0.156-1.104,0.317-1.675,0.447c-10.334,2.355-23.293,0.688-32.032-5.997     C1173.302,748.789,1182.407,746.885,1191.379,747.399z M1166.188,695.823c0.242,0.617,0.485,1.229,0.725,1.849     c-5.305-2.204-11.122-3.2-16.429-5.771c-7.304-3.538-14.127-8.161-22.315-9.269c-0.328-0.045-0.486,0.437-0.143,0.514     c8.644,1.907,15.845,7.537,23.718,11.318c3.371,1.619,6.902,2.954,10.453,4.253c-5.433-1.157-10.791-0.615-16.714-1.17     c-13.838-1.299-23.169-9.272-28.75-20.972c11.519,2.558,23.443,5.046,33.917,10.354     C1154.368,688.815,1161.212,691.879,1166.188,695.823z M1116.708,640.242c-1.647-2.767-2.682-5.824-3.979-8.741     c7.945,2.58,15.856,5.569,22.638,10.498c2.354,1.711,4.445,3.487,6.398,5.329c1.502,2.132,2.848,4.415,4.117,6.747     c-1.117-0.607-2.264-1.12-3.432-1.559c-6.42-5.506-13-10.902-19.806-15.781c-0.191-0.137-0.425,0.169-0.251,0.326     c4.83,4.327,9.497,9.243,14.447,13.758c-1.095-0.277-2.199-0.544-3.307-0.821C1126.98,648.362,1120.399,646.44,1116.708,640.242z      M1239.085,751.337c-0.777-0.611-1.558-1.217-2.344-1.819c-1.151-2.331-2.545-4.575-3.781-6.743     c-3.059-5.358-5.974-10.691-8.052-16.524c-0.138-0.39-0.734-0.238-0.627,0.174c1.417,5.413,3.519,10.521,5.862,15.592     c0.528,1.143,1.034,2.337,1.542,3.549c-3.45-2.81-6.697-5.852-9.254-9.68c-6.744-10.104-6.866-19.187-5.454-30.141     C1228.582,718.115,1232.012,736.059,1239.085,751.337z M1347.06,766.01c0.619,3.377,0.949,7.29,1.993,10.802     c-0.337-0.239-0.674-0.481-1.011-0.723c-0.931-2.84-2.376-5.547-3.418-8.376c-1.784-4.854-1.817-10.051-4.18-14.688     c-0.09-0.177-0.402-0.05-0.323,0.137c1.994,4.835,1.184,10.099,3.01,14.961c0.75,1.993,1.482,3.958,2.191,5.93     c-1.979-1.557-3.847-3.239-5.406-5.185c-6.733-8.392-5.706-18.044-5.767-27.783     C1340.328,748.302,1345.247,756.148,1347.06,766.01z M1307.461,701.092c0.206,0.045,0.41,0.089,0.616,0.132     c-3.895,1.003-7.873,1.684-11.632,3.344c-5.05,2.229-9.706,4.898-13.959,8.424c-0.259,0.214,0.083,0.655,0.358,0.465     c5.747-3.973,12.928-7.589,19.94-8.568c0.406-0.057,0.803-0.107,1.192-0.154c-0.737,0.51-1.47,1.034-2.193,1.578     c-6.021,4.532-11.726,9.839-19.779,10.051c-4.904,0.13-9.636-0.682-14.267-2.008c6.819-4.455,13.984-8.256,21.868-10.708     C1295.528,701.806,1301.481,701.073,1307.461,701.092z M1247.664,666.71c-5.362-1.22-11.297-0.874-16.502-0.611     c-0.151,0.007-0.151,0.228,0,0.236c4.661,0.242,9.325,0.51,13.891,1.561c1.232,0.285,2.408,0.676,3.568,1.099     c-2.543,0.01-5.122,0.382-7.476,0.647c-10.596,1.192-20.584-1.087-27.952-8.192     C1225.104,661.314,1236.986,662.209,1247.664,666.71z M1283.098,682.642c-0.232-0.208-0.457-0.424-0.688-0.634     c-0.774-1.984-1.524-3.984-2.163-6.052c-1.48-4.787-3.091-9.456-5.481-13.87c-0.11-0.206-0.398-0.025-0.307,0.18     c2.092,4.685,3.028,10.614,4.399,16.295c-1.809-1.884-3.495-3.874-4.918-6.089c-4.56-7.092-4.766-14.75-5.502-22.603     c6.991,6.645,10.028,16.973,12.455,26.084C1281.479,678.152,1282.18,680.45,1283.098,682.642z M976.35,754.002     c-10.128-0.288-20.485,0.318-30.132,0.926c-0.265,0.018-0.27,0.41,0,0.415c9.907,0.179,20.523,2.085,30.861,2.508     c-5.389,1.633-10.027,4.92-15.605,6.27c-13.723,3.32-23.451-6.4-30.99-16.627c2.989,0.787,5.958,1.679,9.062,2.005     c6.411,0.672,12.908,0.45,19.303,1.28C964.736,751.542,970.722,752.323,976.35,754.002z M975.97,714.435     c-0.878,2.554-2.724,5.714-4.292,8.994c0.008-0.965,0.006-1.925,0.049-2.901c0.282-5.985,0.828-11.94,0.523-17.935     c-0.017-0.342-0.525-0.344-0.532,0c-0.185,7.89-3.007,16.744-3.058,25.081c-1.157-1.236-2.299-2.49-3.428-3.758     c-1.521-12.29,1.054-24.472,4.643-36.292C974.011,696.099,979.039,705.521,975.97,714.435z M1132.702,790.914     c-0.793-4.102-2.229-8.224-3.095-11.001c-1.831-5.878-3.877-13.373-9.027-17.301c-0.11-0.084-0.235,0.093-0.144,0.185     c4.983,5.035,6.582,14.703,7.81,21.408c0.083,0.453,0.143,0.928,0.208,1.4c-9.688-14.353-17.954-29.499-10.755-44.191     C1124.437,757.332,1135.268,773.28,1132.702,790.914z"></path>
			</g>
			<path fill="#00C2CB" d="M555.706,1202.015c-9.257,20.461-68.693,133.977-139.335,200.231c18.026,4.873,37.513,8.771,59.437,8.771    c36.538,0,71.616-24.847,97.437-56.026c76.001-91.591,47.257-194.874-50.18-194.874c-68.206,0-131.052,42.386-139.822,52.616    c-1.461,1.949-18.026,1.462-11.205-5.847c17.051-18.025,77.462-58.461,149.565-58.461c118.874,0,146.156,118.385,63.821,215.822    c-28.256,33.13-66.744,57.001-110.591,58.95c-28.744,0.974-52.615-2.925-73.077-8.283c-27.769,22.411-56.513,36.538-84.77,34.103    c-64.796-5.847-56.514-62.359,7.308-66.743c25.82-1.462,50.18,6.819,76.487,15.104c65.283-58.951,126.668-169.055,146.156-206.081    C552.783,1186.912,558.629,1195.195,555.706,1202.015z M324.781,1396.888c-46.77,0.976-55.539,38.488-0.487,38.975    c19.487,0.488,40.437-9.742,61.385-25.82C362.294,1403.222,343.294,1396.401,324.781,1396.888z"></path>
			<path fill="#00C2CB" d="M677.007,1346.222c10.231-11.693,14.615-19.489,12.179-21.924c-2.923-2.438-15.102,3.897-26.308,4.385    c-12.667,17.052-29.719,35.564-46.77,52.129c-3.411,2.922-6.333-9.744-4.384-11.205c15.102-12.667,29.718-29.719,39.948-42.874    c-6.333-3.409-10.718-9.742-8.282-20.948c7.308-30.692,44.821-27.769,36.052-5.358c-2.436,5.845-5.847,11.693-9.744,18.025    c5.847-1.461,12.18-3.896,16.078-5.358c20.949-7.795,34.59,1.949,14.128,25.82c-10.718,13.153-47.256,63.333-20.949,66.258    c10.231,0.975,30.782-10.976,67.32-43.131c5.359-4.872,0.398,12.925-1.55,15.361c-2.436,2.436-42.872,42.871-66.256,41.897    C649.725,1418.325,643.878,1385.196,677.007,1346.222z M665.802,1305.298c4.873-11.205-10.231-8.282-12.18,3.897    c-0.974,5.359,0.487,8.282,3.898,9.743C661.417,1312.605,664.828,1307.733,665.802,1305.298z"></path>
			<path fill="#00C2CB" d="M1290.453,1202.502c-11.69,18.026-38.974,55.539-62.359,89.642c7.309,0.486,12.667,0.974,14.617,1.462    c4.871,1.462-1.463,9.256-13.155,8.282l-8.281-0.486c-6.821,10.23-13.153,19.486-18.514,27.768    c-24.847,38.975-31.18,78.925-18.514,82.335c13.155,3.896,40.924-11.693,52.617-26.795c6.333-7.794,11.205,2.923,8.769,5.359    c-58.949,66.256-88.181,27.768-82.821-2.437c4.873-25.82,20.948-57,39.949-87.206c-24.359-1.461-47.744-0.974-77.462,2.436    c-21.924,24.36-41.897,46.283-57.487,61.386c-49.694,48.23-84.283,58.949-106.207,57.975    c-57.105-2.539-84.907-90.794-91.728-107.847c-5.359-14.615,28.341,37.893,30.29,43.251    c17.538,42.386,67.771,101.621,204.67-51.842c-9.257,1.462-18.512,2.923-29.23,4.873c-7.308,1.462,1.46-18.027,12.179-19    c8.771-1.462,19.975-1.949,31.667-2.437l1.462-1.949c103.283-121.796,141.771-143.719,169.539-139.821    C1307.019,1149.398,1307.019,1177.655,1290.453,1202.502z M1209.094,1290.681c19-30.203,40.436-58.461,55.539-77.948    c30.206-39.462,23.874-53.103,18.514-53.103c-27.77,0-90.128,68.205-145.18,129.104    C1162.812,1288.733,1188.632,1289.708,1209.094,1290.681z"></path>
			<path fill="#00C2CB" d="M1286.555,1385.196c0,15.103,5.357,19.486,13.641,19.975c10.718,0.487,27.283-7.794,63.333-39.949    c5.847-4.872,4.872,9.743,2.925,12.18c-2.437,2.436-42.873,42.871-66.258,41.897c-38.488-1.463-28.258-52.129-20.949-75.514    c24.358-77.463,90.616-139.821,117.411-156.873c21.925-14.129,36.538-13.642,40.924-7.794    c22.41,30.691-107.18,151.514-149.078,189.025C1287.041,1373.991,1286.555,1379.837,1286.555,1385.196z M1421.991,1192.759    c-2.924-2.923-11.693-0.487-26.795,11.691c-32.643,24.848-84.771,92.078-102.797,147.131    C1336.734,1312.119,1436.607,1206.886,1421.991,1192.759z"></path>
			<path fill="#00C2CB" d="M1380.092,1404.683c11.691,0.976,28.744-7.306,65.283-39.461c5.358-4.872,4.383,9.743,2.436,12.18    c-2.436,2.436-53.591,55.538-83.309,34.59c-15.59-10.718-9.257-37.026,11.205-65.77c16.563-24.361,25.82-36.539,29.23-38.976    c3.898-2.923,12.18,6.821,7.795,13.154c-3.41,5.359-30.693,40.924-37.512,57.487    C1367.912,1394.452,1369.861,1403.709,1380.092,1404.683z M1436.604,1270.708c-7.794-3.898-17.05,0-20.949,7.795    c-3.409,6.819-2.922,16.564,4.387,18.999C1435.144,1302.861,1449.758,1276.554,1436.604,1270.708z"></path>
			<path fill="#00C2CB" d="M1475.092,1322.349c39.462-32.153,77.949-24.359,73.077-0.974c-2.923,11.692-16.565,22.897-20.462,25.819    c-2.436,1.95-11.693-6.818-4.385-12.666c12.668-10.718,7.795-24.846-5.846-21.436c-9.744,2.436-36.053,19.975-49.693,39.948    c-35.077,52.13,18.513,81.36,96.463,12.181c5.846-4.872,4.872,9.743,2.923,12.18c-2.436,2.436-36.052,37.513-66.256,41.41    c-25.334,3.896-46.283-1.463-56.026-18.025C1437.578,1387.632,1431.731,1357.426,1475.092,1322.349z"></path>
			<path fill="#00C2CB" d="M1580.804,1404.683c11.691,0.976,28.744-7.306,65.282-39.461c5.358-4.872,4.385,9.743,2.437,12.18    c-2.437,2.436-53.591,55.538-83.308,34.59c-15.59-10.718-9.258-37.026,11.203-65.77c16.564-24.361,25.821-36.539,29.23-38.976    c3.899-2.923,12.181,6.821,7.796,13.154c-3.409,5.359-30.692,40.924-37.513,57.487    C1568.624,1394.452,1570.573,1403.709,1580.804,1404.683z M1637.316,1270.708c-7.795-3.898-17.051,0-20.949,7.795    c-3.41,6.819-2.923,16.564,4.386,18.999C1635.855,1302.861,1650.471,1276.554,1637.316,1270.708z"></path>
			<path fill="#00C2CB" d="M1755.215,1421.735c-24.846,3.896-39.949-13.154-32.642-37.515    c-36.538,38.001-49.692,41.411-65.282,38.977c-18.025-2.925-30.206-31.18-3.898-68.694c26.309-37.025,61.873-48.232,75.026-48.232    c11.692,0,21.924,7.797,24.359,19.976c4.385-5.358,7.795-9.256,9.257-9.744c3.897-1.947,14.127,6.821,14.127,9.258    c0,1.462-12.666,14.128-23.871,26.307c-31.18,47.744-16.563,65.282,28.258,42.874c13.153-6.335,27.28-16.078,42.87-29.719    c5.848-4.872,4.872,9.743,2.437,12.18C1823.419,1379.837,1785.907,1416.863,1755.215,1421.735z M1738.163,1346.222h-0.488    c0,0,8.77-24.361-11.205-24.361c-43.847,0-90.129,77.463-64.795,83.798c23.871,6.333,68.206-49.692,71.616-52.617    L1738.163,1346.222z"></path>
		</g>
	</g>
</svg>